<svg id="svg" version="1.1" xmlns="http://www.w3.org/2000/svg" xmlns:xlink="http://www.w3.org/1999/xlink" width="400" height="177.75" viewBox="0, 0, 400,177.75"><g id="svgg"><path id="path0" d="M50.461 34.401 C 46.986 34.661,43.896 35.024,43.644 35.203 C 43.547 35.272,43.107 35.383,42.667 35.449 C 41.914 35.562,39.987 36.120,39.200 36.453 C 39.004 36.536,38.284 36.819,37.600 37.083 C 31.582 39.399,26.815 44.272,24.920 50.044 C 23.791 53.485,23.580 54.891,23.587 58.933 C 23.596 64.213,24.010 66.044,26.258 70.733 C 28.679 75.787,35.126 80.060,42.271 81.349 C 42.635 81.415,43.013 81.518,43.111 81.579 C 43.209 81.639,43.889 81.831,44.622 82.005 C 45.356 82.179,46.396 82.435,46.933 82.574 C 47.471 82.713,48.431 82.956,49.067 83.114 C 49.702 83.273,50.298 83.477,50.391 83.568 C 50.484 83.659,50.741 83.733,50.961 83.733 C 52.983 83.733,60.914 86.409,65.005 88.470 C 66.003 88.974,66.925 89.473,67.054 89.579 C 67.183 89.686,67.729 90.138,68.267 90.583 C 70.581 92.501,71.200 93.765,71.200 96.569 C 71.200 97.995,71.130 98.719,70.978 98.871 C 70.855 98.993,70.756 99.225,70.756 99.385 C 70.756 101.516,67.176 104.513,63.439 105.512 C 60.240 106.367,53.284 106.521,50.667 105.795 C 50.324 105.700,49.484 105.488,48.800 105.322 C 45.848 104.610,40.711 101.104,40.711 99.802 C 40.711 99.683,40.649 99.559,40.574 99.526 C 40.096 99.320,38.861 95.805,38.446 93.467 L 38.360 92.978 30.353 92.978 L 22.346 92.978 22.457 94.657 C 23.137 105.020,29.043 113.476,38.222 117.232 C 38.858 117.492,39.538 117.778,39.733 117.867 C 39.929 117.957,40.449 118.116,40.889 118.222 C 41.329 118.328,41.849 118.489,42.044 118.580 C 42.495 118.789,44.704 119.234,47.111 119.601 C 49.848 120.019,60.655 120.014,63.289 119.594 C 65.791 119.195,67.921 118.774,68.356 118.591 C 68.551 118.509,69.391 118.227,70.222 117.964 C 71.863 117.445,72.211 117.301,74.510 116.182 C 80.503 113.265,84.768 107.820,86.348 101.067 C 86.485 100.480,86.675 99.680,86.771 99.289 C 87.093 97.973,87.160 91.281,86.869 89.600 C 85.940 84.241,83.957 80.602,80.229 77.419 C 78.273 75.749,77.818 75.481,74.478 74.022 C 71.387 72.673,70.792 72.460,68.267 71.801 C 65.551 71.092,63.296 70.445,60.889 69.682 C 59.911 69.373,58.471 68.973,57.689 68.794 C 55.637 68.325,54.715 68.080,54.311 67.898 C 54.116 67.809,53.456 67.616,52.844 67.468 C 50.396 66.877,49.623 66.661,48.089 66.138 C 46.222 65.501,43.733 64.366,43.733 64.150 C 43.733 64.067,43.642 64.000,43.529 64.000 C 43.284 64.000,41.919 62.910,41.086 62.047 C 39.644 60.554,38.819 56.099,39.764 54.903 C 39.867 54.773,40.005 54.440,40.071 54.163 C 41.193 49.477,49.145 46.819,57.778 48.247 C 62.601 49.044,65.736 51.233,67.734 55.197 C 68.555 56.825,70.328 58.649,71.741 59.317 L 72.800 59.819 78.593 59.874 L 84.386 59.929 84.316 58.898 C 84.027 54.683,83.303 51.844,81.635 48.388 C 78.881 42.679,75.276 39.354,68.889 36.631 C 65.780 35.305,57.629 33.963,53.867 34.157 C 53.622 34.169,52.090 34.279,50.461 34.401 M89.600 42.915 L 89.600 49.237 96.844 49.285 C 100.829 49.312,104.429 49.309,104.844 49.279 L 105.600 49.224 105.599 46.612 C 105.597 41.280,104.487 39.003,101.071 37.321 L 99.831 36.711 94.715 36.652 L 89.600 36.594 89.600 42.915 M131.822 53.893 C 126.438 54.568,124.370 55.132,121.244 56.776 C 115.492 59.802,111.241 65.704,109.256 73.422 C 108.991 74.449,108.704 75.529,108.616 75.822 C 108.076 77.637,107.586 82.712,107.588 86.489 C 107.589 90.357,108.107 95.746,108.604 97.062 C 108.697 97.309,108.822 97.804,108.881 98.163 C 109.121 99.620,110.190 102.586,111.172 104.521 C 113.103 108.324,118.223 114.360,120.232 115.200 C 120.349 115.249,120.767 115.499,121.162 115.756 C 130.199 121.639,142.165 120.098,148.383 112.251 C 149.961 110.261,149.925 110.217,149.821 114.000 C 149.601 121.950,146.960 127.105,141.750 129.749 C 136.720 132.302,129.380 130.195,126.299 125.315 L 125.862 124.622 117.509 124.622 C 111.733 124.622,109.156 124.680,109.156 124.811 C 109.156 124.915,109.282 125.415,109.436 125.922 C 112.331 135.438,117.725 141.286,125.604 143.451 C 129.504 144.523,129.835 144.569,134.133 144.660 C 143.129 144.850,150.976 142.594,157.134 138.047 C 158.536 137.012,161.956 133.126,161.956 132.568 C 161.956 132.519,162.219 132.011,162.542 131.439 C 163.095 130.458,164.033 127.813,164.454 126.044 C 164.916 124.103,164.986 123.735,165.182 122.222 C 165.482 119.910,165.474 78.978,165.173 76.622 C 163.979 67.262,160.351 61.912,152.444 57.855 C 151.271 57.253,149.991 56.659,149.600 56.535 C 149.209 56.411,148.809 56.253,148.711 56.185 C 147.985 55.676,143.633 54.518,141.422 54.246 C 140.542 54.137,139.150 53.968,138.327 53.869 C 136.585 53.659,133.600 53.670,131.822 53.893 M193.156 53.884 C 192.569 53.968,191.409 54.128,190.578 54.239 C 188.865 54.469,185.967 55.172,185.129 55.562 C 184.821 55.705,184.481 55.822,184.374 55.822 C 182.191 55.822,174.809 60.680,172.893 63.378 C 168.797 69.144,168.538 71.225,168.535 98.267 L 168.533 118.222 176.533 118.222 L 184.533 118.222 184.535 97.733 C 184.536 78.311,184.620 74.427,185.048 73.878 C 185.129 73.774,185.253 73.449,185.323 73.156 C 186.998 66.164,200.109 64.721,204.463 71.049 C 206.207 73.584,206.201 73.511,206.221 93.422 C 206.241 113.850,206.201 113.452,208.459 115.809 C 210.468 117.905,211.671 118.222,217.619 118.222 L 222.222 118.222 222.222 97.932 C 222.222 85.986,222.154 77.377,222.057 76.998 C 221.966 76.645,221.803 75.400,221.695 74.233 C 221.587 73.066,221.432 72.026,221.350 71.922 C 221.268 71.818,221.143 71.333,221.072 70.844 C 221.002 70.356,220.881 69.876,220.804 69.778 C 220.727 69.680,220.606 69.320,220.535 68.978 C 220.205 67.374,218.288 63.655,217.050 62.217 C 215.382 60.279,213.996 59.253,210.889 57.654 C 205.228 54.740,197.966 53.196,193.156 53.884 M89.600 86.652 L 89.600 118.222 97.600 118.222 L 105.600 118.222 105.600 90.344 C 105.600 60.444,105.620 61.122,104.664 59.321 C 104.007 58.083,101.960 56.115,101.012 55.809 C 100.651 55.693,100.243 55.509,100.106 55.399 C 99.939 55.266,98.162 55.181,94.729 55.141 L 89.600 55.083 89.600 86.652 M140.068 67.929 C 145.856 69.208,149.839 76.909,149.852 86.844 C 149.855 89.297,149.774 90.401,149.415 92.800 C 147.945 102.626,141.660 107.266,132.395 105.365 C 126.042 104.062,122.770 96.938,123.275 85.511 C 123.874 71.963,129.878 65.677,140.068 67.929 " stroke="none" fill="#040404" fill-rule="evenodd"></path><path id="path1" d="M361.244 77.639 C 361.244 109.050,361.293 118.378,361.458 118.542 C 361.617 118.702,363.659 118.756,369.548 118.756 L 377.425 118.756 377.379 80.663 L 377.333 42.570 376.760 41.405 C 376.018 39.899,374.466 38.403,372.851 37.638 L 371.644 37.067 366.444 37.008 L 361.244 36.950 361.244 77.639 M280.419 45.877 C 276.865 46.223,275.213 47.571,272.499 52.340 C 271.604 53.913,270.258 56.240,269.508 57.511 C 268.099 59.900,264.474 66.148,263.681 67.556 C 263.432 67.996,262.456 69.676,261.511 71.289 C 260.566 72.902,259.559 74.642,259.274 75.155 C 258.989 75.669,258.675 76.089,258.576 76.089 C 258.349 76.089,258.343 76.080,255.882 71.677 C 252.101 64.915,249.956 61.109,249.300 60.000 C 249.011 59.511,248.426 58.471,248.001 57.689 C 247.575 56.907,246.998 55.867,246.719 55.378 C 246.439 54.889,246.037 54.149,245.825 53.733 L 245.440 52.978 234.453 52.978 C 226.224 52.978,223.467 53.030,223.467 53.184 C 223.467 53.298,223.694 53.758,223.972 54.207 C 224.398 54.894,226.146 57.696,227.643 60.089 C 227.857 60.431,228.378 61.271,228.802 61.956 C 229.226 62.640,229.825 63.600,230.132 64.089 C 230.440 64.578,231.159 65.738,231.731 66.667 C 232.303 67.596,233.426 69.396,234.225 70.667 C 235.025 71.938,236.031 73.564,236.462 74.279 C 236.892 74.995,237.364 75.774,237.511 76.010 C 239.722 79.564,243.557 85.699,244.563 87.289 C 245.274 88.413,246.058 89.684,246.306 90.112 L 246.756 90.890 245.449 92.956 C 244.731 94.093,243.596 95.902,242.928 96.978 C 242.260 98.053,241.462 99.333,241.153 99.822 C 240.845 100.311,239.528 102.431,238.227 104.533 C 236.926 106.636,235.393 109.096,234.820 110.001 C 234.247 110.907,233.778 111.681,233.778 111.722 C 233.778 111.763,233.463 112.272,233.077 112.852 C 232.692 113.431,231.944 114.617,231.416 115.486 C 230.887 116.356,229.631 118.387,228.625 120.000 C 227.619 121.613,226.667 123.151,226.509 123.416 C 226.095 124.114,224.119 127.289,222.918 129.186 C 222.097 130.483,221.934 130.856,222.118 131.010 C 222.281 131.145,225.738 131.189,233.689 131.157 L 245.028 131.111 247.420 126.933 C 248.736 124.636,250.034 122.356,250.304 121.867 C 250.573 121.378,251.777 119.258,252.979 117.156 C 259.724 105.354,259.042 106.422,259.432 107.061 C 259.716 107.526,262.519 112.636,263.653 114.756 C 264.071 115.538,264.774 116.818,265.215 117.600 C 265.656 118.382,266.296 119.542,266.637 120.178 C 266.978 120.813,267.816 122.333,268.499 123.556 C 269.904 126.067,271.427 128.881,272.133 130.268 L 272.609 131.203 283.978 131.157 C 291.359 131.127,295.369 131.049,295.407 130.933 C 295.440 130.836,293.510 127.676,291.119 123.911 C 286.609 116.810,286.318 116.351,281.490 108.711 C 279.884 106.169,278.104 103.366,277.536 102.482 C 276.967 101.599,275.725 99.639,274.774 98.127 C 273.824 96.615,272.485 94.498,271.799 93.422 C 271.113 92.347,270.512 91.373,270.463 91.259 C 270.384 91.077,271.098 89.857,273.150 86.667 C 273.464 86.178,274.178 85.058,274.736 84.178 C 275.295 83.298,276.261 81.778,276.884 80.800 C 277.508 79.822,278.625 78.062,279.368 76.889 C 283.236 70.777,284.995 68.005,289.859 60.356 C 296.486 49.932,296.073 50.580,297.519 48.356 C 299.385 45.485,300.206 45.781,290.311 45.757 C 285.667 45.745,281.215 45.799,280.419 45.877 M341.333 50.100 C 339.318 50.627,336.111 53.558,336.009 54.967 C 336.002 55.064,334.040 58.557,333.331 59.733 C 333.046 60.207,329.653 66.024,329.287 66.667 C 329.092 67.009,328.619 67.809,328.235 68.444 C 327.851 69.080,326.941 70.660,326.213 71.955 C 325.485 73.250,324.809 74.309,324.711 74.308 C 324.613 74.306,323.813 73.014,322.933 71.435 C 322.053 69.857,321.102 68.158,320.820 67.660 C 320.538 67.163,320.132 66.436,319.917 66.044 C 319.429 65.155,316.459 59.879,315.057 57.409 L 314.005 55.556 305.345 55.509 C 300.582 55.484,296.581 55.524,296.452 55.598 C 296.278 55.699,296.485 56.139,297.267 57.333 C 297.843 58.213,298.374 59.056,298.446 59.206 C 298.519 59.357,299.018 60.179,299.556 61.034 C 300.093 61.888,300.613 62.727,300.711 62.898 C 300.982 63.371,302.836 66.346,304.202 68.501 C 304.873 69.559,305.422 70.493,305.422 70.575 C 305.422 70.658,305.484 70.753,305.559 70.785 C 305.676 70.836,306.658 72.391,307.561 73.956 C 307.711 74.216,308.383 75.302,309.054 76.370 C 309.724 77.438,310.448 78.591,310.661 78.933 C 310.874 79.276,311.408 80.116,311.847 80.800 C 312.286 81.484,312.699 82.164,312.764 82.311 C 312.829 82.458,313.370 83.335,313.966 84.261 C 315.292 86.323,315.367 85.938,312.858 89.957 C 311.729 91.765,310.063 94.444,309.156 95.911 C 306.894 99.570,305.719 101.464,302.758 106.222 C 301.358 108.471,299.695 111.151,299.062 112.178 C 298.429 113.204,297.312 114.986,296.580 116.136 C 294.740 119.031,293.885 118.756,304.716 118.756 L 313.744 118.756 314.534 117.378 C 314.968 116.620,316.127 114.600,317.109 112.889 C 318.091 111.178,320.272 107.358,321.955 104.400 C 323.638 101.442,325.079 99.022,325.157 99.022 C 325.323 99.022,325.809 99.841,327.109 102.311 C 327.623 103.289,328.186 104.329,328.359 104.622 C 328.814 105.391,331.556 110.415,331.556 110.479 C 331.556 110.508,332.004 111.322,332.553 112.288 C 333.102 113.254,333.995 114.884,334.538 115.911 C 335.081 116.938,335.677 117.998,335.863 118.267 L 336.202 118.756 345.246 118.756 C 351.015 118.756,354.329 118.692,354.399 118.580 C 354.459 118.483,353.800 117.303,352.935 115.958 C 352.070 114.612,351.092 113.071,350.760 112.533 C 350.428 111.996,349.664 110.796,349.062 109.867 C 348.123 108.417,347.231 107.003,343.911 101.701 C 343.457 100.976,338.705 93.508,337.204 91.159 C 336.937 90.742,336.635 90.240,336.534 90.044 C 336.433 89.849,335.879 88.945,335.303 88.036 L 334.256 86.382 336.637 82.613 C 339.360 78.303,339.314 78.376,340.840 76.000 C 341.993 74.205,343.480 71.854,343.874 71.201 C 343.992 71.006,344.379 70.406,344.734 69.868 C 345.089 69.329,346.643 66.889,348.187 64.444 C 353.561 55.939,355.611 52.704,356.379 51.520 C 356.833 50.821,357.108 50.215,357.046 50.053 C 356.880 49.622,343.006 49.663,341.333 50.100 " stroke="none" fill="#eb1d25" fill-rule="evenodd"></path><path id="path2" d="M0.000 88.889 L 0.000 177.778 200.000 177.778 L 400.000 177.778 400.000 88.889 L 400.000 0.000 200.000 0.000 L 0.000 0.000 0.000 88.889 M58.133 34.140 C 65.841 34.809,71.101 36.644,75.631 40.242 C 77.123 41.428,79.337 43.935,80.453 45.702 C 81.241 46.951,82.844 50.284,82.844 50.674 C 82.844 50.787,82.962 51.132,83.106 51.440 C 83.439 52.151,83.898 53.976,84.119 55.467 C 84.214 56.102,84.371 56.902,84.468 57.244 C 84.566 57.587,84.620 58.387,84.589 59.022 L 84.533 60.178 79.822 60.225 C 71.893 60.305,69.633 59.445,67.739 55.628 C 66.054 52.232,63.329 49.898,60.089 49.077 C 59.649 48.965,59.129 48.800,58.933 48.708 C 57.700 48.134,51.101 47.885,48.648 48.321 C 42.766 49.365,39.432 53.008,39.677 58.122 C 39.827 61.269,41.971 63.404,47.200 65.615 C 48.071 65.983,50.645 66.765,52.444 67.208 C 53.178 67.389,54.378 67.691,55.111 67.881 C 55.844 68.070,57.044 68.362,57.778 68.529 C 58.511 68.697,60.031 69.136,61.156 69.505 C 64.290 70.533,66.421 71.147,69.445 71.895 C 70.436 72.140,71.691 72.544,72.234 72.793 C 72.777 73.041,73.259 73.244,73.305 73.244 C 73.379 73.244,75.515 74.218,77.156 75.000 C 81.589 77.112,85.585 82.420,86.682 87.654 C 87.204 90.148,87.263 90.761,87.267 93.778 C 87.286 108.560,78.877 117.733,63.467 119.740 C 62.440 119.874,60.956 120.067,60.169 120.169 C 58.320 120.410,52.080 120.410,50.231 120.169 C 45.781 119.591,44.979 119.476,44.089 119.290 C 43.022 119.068,40.833 118.459,40.267 118.227 C 40.071 118.147,39.391 117.904,38.756 117.687 C 34.114 116.102,29.321 112.250,26.368 107.733 C 25.560 106.498,24.178 103.672,24.178 103.256 C 24.178 103.157,24.066 102.824,23.930 102.516 C 23.134 100.716,22.315 96.786,22.195 94.185 L 22.135 92.889 30.332 92.843 L 38.528 92.796 38.913 94.620 C 39.288 96.392,39.951 98.339,40.222 98.459 C 40.296 98.492,40.356 98.612,40.356 98.726 C 40.356 99.169,42.001 101.244,43.140 102.239 C 44.433 103.368,48.047 105.053,49.778 105.334 C 50.218 105.405,50.707 105.531,50.865 105.614 C 51.886 106.150,60.552 106.150,62.283 105.615 C 62.592 105.520,63.404 105.269,64.089 105.056 C 70.871 102.955,73.342 96.084,68.952 91.536 C 67.417 89.947,61.489 86.578,60.226 86.578 C 60.131 86.578,59.802 86.462,59.494 86.321 C 59.185 86.180,58.173 85.854,57.244 85.596 C 56.316 85.338,54.996 84.967,54.311 84.773 C 53.627 84.578,52.627 84.317,52.089 84.192 C 50.914 83.920,49.114 83.393,48.622 83.178 C 48.427 83.092,47.707 82.908,47.022 82.769 C 43.536 82.060,38.763 80.730,37.395 80.086 C 37.087 79.941,36.783 79.822,36.719 79.822 C 36.339 79.822,33.122 78.221,32.036 77.491 C 31.615 77.209,31.193 76.978,31.097 76.978 C 30.491 76.978,26.133 71.899,26.133 71.192 C 26.133 71.152,25.883 70.578,25.578 69.916 C 24.882 68.408,24.248 66.617,24.081 65.689 C 24.011 65.298,23.886 64.848,23.805 64.689 C 23.723 64.531,23.565 63.127,23.454 61.569 C 22.652 50.307,26.745 42.283,35.640 37.680 C 37.250 36.847,42.029 35.200,42.837 35.200 C 42.996 35.200,43.562 35.086,44.096 34.948 C 47.102 34.166,53.918 33.774,58.133 34.140 M101.188 37.114 C 104.619 38.804,105.846 41.197,105.858 46.222 L 105.867 49.511 97.600 49.511 L 89.333 49.511 89.287 42.968 L 89.240 36.425 94.624 36.479 L 100.009 36.533 101.188 37.114 M372.851 37.638 C 374.466 38.403,376.018 39.899,376.760 41.405 L 377.333 42.570 377.379 80.663 L 377.425 118.756 369.335 118.756 L 361.244 118.756 361.244 77.853 L 361.244 36.950 366.444 37.008 L 371.644 37.067 372.851 37.638 M298.814 45.844 C 298.995 45.959,298.725 46.496,297.678 48.108 C 296.077 50.572,296.623 49.718,289.859 60.356 C 284.995 68.005,283.236 70.777,279.368 76.889 C 278.625 78.062,277.508 79.822,276.884 80.800 C 276.261 81.778,275.295 83.298,274.736 84.178 C 274.178 85.058,273.464 86.178,273.150 86.667 C 271.098 89.857,270.384 91.077,270.463 91.259 C 270.512 91.373,271.113 92.347,271.799 93.422 C 272.485 94.498,273.824 96.615,274.774 98.127 C 275.725 99.639,276.967 101.599,277.536 102.482 C 278.104 103.366,279.884 106.169,281.490 108.711 C 283.097 111.253,284.942 114.173,285.591 115.200 C 286.239 116.227,288.575 119.907,290.781 123.378 C 292.988 126.849,294.992 130.029,295.235 130.444 L 295.678 131.200 284.143 131.200 L 272.607 131.200 272.133 130.267 C 271.427 128.880,269.904 126.066,268.499 123.556 C 267.816 122.333,266.978 120.813,266.637 120.178 C 266.296 119.542,265.656 118.382,265.215 117.600 C 264.774 116.818,264.071 115.538,263.653 114.756 C 262.519 112.636,259.716 107.526,259.432 107.061 C 259.083 106.489,259.080 106.492,257.021 110.089 C 252.334 118.276,250.763 121.029,250.404 121.689 C 249.517 123.316,245.122 130.944,245.001 131.068 C 244.928 131.142,239.656 131.182,233.285 131.157 L 221.702 131.111 222.826 129.333 C 224.147 127.242,226.101 124.103,226.509 123.416 C 226.667 123.151,227.619 121.613,228.625 120.000 C 229.631 118.387,230.887 116.356,231.416 115.486 C 231.944 114.617,232.692 113.431,233.077 112.852 C 233.463 112.272,233.778 111.763,233.778 111.722 C 233.778 111.681,234.247 110.907,234.820 110.001 C 235.393 109.096,236.926 106.636,238.227 104.533 C 239.528 102.431,240.845 100.311,241.153 99.822 C 241.462 99.333,242.260 98.053,242.928 96.978 C 243.596 95.902,244.731 94.093,245.449 92.956 L 246.756 90.890 246.306 90.112 C 246.058 89.684,245.274 88.413,244.563 87.289 C 243.557 85.699,239.722 79.564,237.511 76.010 C 237.364 75.774,236.892 74.995,236.462 74.279 C 236.031 73.564,235.025 71.938,234.225 70.667 C 233.426 69.396,232.303 67.596,231.731 66.667 C 231.159 65.738,230.440 64.578,230.132 64.089 C 229.825 63.600,229.226 62.640,228.802 61.956 C 227.887 60.478,227.559 59.952,226.303 57.956 C 225.032 55.936,223.674 53.722,223.455 53.311 C 223.281 52.987,223.579 52.978,234.358 52.978 L 245.440 52.978 245.825 53.733 C 246.037 54.149,246.439 54.889,246.719 55.378 C 246.998 55.867,247.575 56.907,248.001 57.689 C 248.426 58.471,249.011 59.511,249.300 60.000 C 249.956 61.109,252.101 64.915,255.882 71.677 C 258.343 76.080,258.349 76.089,258.576 76.089 C 258.675 76.089,258.989 75.669,259.274 75.155 C 259.559 74.642,260.566 72.902,261.511 71.289 C 262.456 69.676,263.432 67.996,263.681 67.556 C 264.474 66.148,268.099 59.900,269.508 57.511 C 270.258 56.240,271.604 53.913,272.499 52.340 C 275.214 47.571,276.867 46.222,280.419 45.878 C 282.393 45.686,298.519 45.657,298.814 45.844 M357.272 50.038 C 357.217 50.181,356.820 50.841,356.389 51.505 C 355.613 52.702,353.583 55.904,348.187 64.444 C 346.643 66.889,345.089 69.329,344.734 69.868 C 344.379 70.406,343.992 71.006,343.874 71.201 C 343.480 71.854,341.993 74.205,340.840 76.000 C 339.314 78.376,339.360 78.303,336.637 82.613 L 334.256 86.382 335.303 88.036 C 335.879 88.945,336.433 89.849,336.534 90.044 C 336.635 90.240,336.937 90.742,337.204 91.159 C 338.705 93.508,343.457 100.976,343.911 101.701 C 347.238 107.014,348.123 108.416,349.064 109.867 C 349.666 110.796,350.629 112.316,351.203 113.244 C 351.777 114.173,352.616 115.493,353.068 116.178 C 353.519 116.862,354.070 117.722,354.292 118.089 L 354.696 118.756 345.389 118.756 L 336.082 118.756 335.530 117.733 C 335.227 117.171,334.647 116.097,334.243 115.346 C 333.839 114.595,333.069 113.204,332.532 112.256 C 331.995 111.308,331.556 110.508,331.556 110.479 C 331.556 110.415,328.814 105.391,328.359 104.622 C 328.186 104.329,327.623 103.289,327.109 102.311 C 325.809 99.841,325.323 99.022,325.157 99.022 C 325.079 99.022,323.638 101.442,321.955 104.400 C 320.272 107.358,318.091 111.178,317.109 112.889 C 316.127 114.600,314.968 116.620,314.534 117.378 L 313.744 118.756 304.409 118.756 C 295.591 118.756,295.080 118.738,295.192 118.444 C 295.258 118.273,295.896 117.213,296.611 116.089 C 297.326 114.964,298.429 113.204,299.062 112.178 C 299.695 111.151,301.358 108.471,302.758 106.222 C 305.719 101.464,306.894 99.570,309.156 95.911 C 310.063 94.444,311.729 91.765,312.858 89.957 C 315.367 85.938,315.292 86.323,313.966 84.261 C 313.370 83.335,312.829 82.458,312.764 82.311 C 312.699 82.164,312.286 81.484,311.847 80.800 C 311.408 80.116,310.874 79.276,310.661 78.933 C 310.448 78.591,309.724 77.438,309.054 76.370 C 308.383 75.302,307.711 74.216,307.561 73.956 C 306.658 72.391,305.676 70.836,305.559 70.785 C 305.484 70.753,305.422 70.658,305.422 70.575 C 305.422 70.493,304.873 69.559,304.202 68.501 C 302.836 66.346,300.982 63.371,300.711 62.898 C 300.613 62.727,300.093 61.888,299.556 61.034 C 299.018 60.179,298.519 59.357,298.446 59.206 C 298.374 59.056,297.842 58.213,297.264 57.333 C 296.686 56.453,296.270 55.673,296.339 55.598 C 296.409 55.524,300.412 55.484,305.235 55.509 L 314.005 55.556 315.057 57.409 C 316.459 59.879,319.429 65.155,319.917 66.044 C 320.132 66.436,320.538 67.163,320.820 67.660 C 321.102 68.158,322.053 69.857,322.933 71.435 C 323.813 73.014,324.613 74.306,324.711 74.308 C 324.809 74.309,325.485 73.250,326.213 71.955 C 326.941 70.660,327.851 69.080,328.235 68.444 C 328.619 67.809,329.092 67.009,329.287 66.667 C 329.653 66.024,333.046 60.207,333.331 59.733 C 334.040 58.557,336.002 55.064,336.009 54.967 C 336.111 53.558,339.318 50.627,341.333 50.100 C 342.961 49.675,357.433 49.618,357.272 50.038 M139.289 53.685 C 141.054 53.874,143.623 54.340,144.800 54.686 C 147.220 55.396,147.771 55.580,149.385 56.211 C 151.097 56.881,153.603 58.068,153.778 58.293 C 153.827 58.356,154.067 58.505,154.311 58.625 C 154.809 58.868,154.966 58.967,156.613 60.068 C 158.170 61.110,160.199 63.112,161.146 64.542 C 161.925 65.719,163.555 68.762,163.555 69.040 C 163.555 69.123,163.671 69.443,163.813 69.751 C 164.320 70.856,164.957 73.655,165.437 76.889 C 165.659 78.379,165.739 119.745,165.523 121.067 C 165.419 121.702,165.208 123.141,165.055 124.263 C 164.901 125.386,164.713 126.386,164.636 126.485 C 164.559 126.585,164.401 127.067,164.284 127.556 C 163.254 131.891,160.087 136.335,156.178 138.933 C 154.132 140.293,149.566 142.577,148.889 142.579 C 148.791 142.580,148.500 142.690,148.243 142.824 C 147.279 143.327,144.508 144.081,142.311 144.439 C 139.077 144.965,137.913 145.069,135.289 145.067 C 129.934 145.064,125.952 144.220,121.600 142.165 C 118.929 140.905,115.876 138.341,113.836 135.646 C 112.443 133.805,109.937 128.849,109.598 127.263 C 109.527 126.935,109.409 126.587,109.333 126.489 C 109.144 126.242,108.807 124.576,108.913 124.406 C 109.022 124.230,125.534 124.226,125.790 124.403 C 125.894 124.475,126.227 124.893,126.529 125.333 C 127.894 127.316,131.905 130.133,133.364 130.133 C 133.504 130.133,133.718 130.233,133.840 130.356 C 134.231 130.747,139.087 130.655,140.178 130.236 C 146.313 127.877,149.621 121.992,149.674 113.347 L 149.689 110.872 149.124 111.726 C 147.660 113.936,143.980 116.968,141.778 117.779 C 141.289 117.958,140.808 118.166,140.709 118.240 C 140.448 118.434,138.409 118.934,137.067 119.133 C 136.431 119.228,135.379 119.393,134.730 119.500 C 133.578 119.690,131.651 119.550,129.244 119.102 C 123.629 118.057,119.004 115.296,114.966 110.578 C 113.299 108.631,111.804 106.343,110.841 104.267 C 110.478 103.484,110.071 102.632,109.935 102.373 C 109.800 102.113,109.689 101.805,109.689 101.688 C 109.689 101.572,109.573 101.224,109.432 100.916 C 107.848 97.465,106.788 84.782,107.683 80.000 C 107.802 79.364,108.030 78.004,108.189 76.978 C 108.349 75.951,108.596 74.711,108.738 74.222 C 109.326 72.201,109.956 70.284,110.170 69.867 C 110.295 69.622,110.398 69.370,110.399 69.307 C 110.402 69.030,111.884 66.043,112.651 64.770 C 115.575 59.913,119.408 56.802,124.444 55.196 C 125.276 54.931,126.116 54.646,126.311 54.563 C 126.507 54.480,127.147 54.329,127.733 54.228 C 128.320 54.126,129.000 53.998,129.244 53.943 C 130.958 53.558,136.711 53.410,139.289 53.685 M201.067 54.040 C 206.868 55.152,212.660 57.741,215.930 60.682 C 217.005 61.649,218.607 63.856,219.436 65.511 C 219.984 66.607,220.259 67.334,220.990 69.632 C 221.257 70.471,221.691 72.784,221.885 74.400 C 221.979 75.182,222.137 76.342,222.238 76.978 C 222.357 77.734,222.402 85.072,222.366 98.222 L 222.311 118.311 217.778 118.359 C 210.410 118.437,208.028 117.338,206.513 113.161 C 206.378 112.790,206.285 106.945,206.212 94.400 C 206.102 75.291,206.093 75.085,205.287 73.067 C 203.274 68.029,196.516 65.633,190.844 67.947 C 189.019 68.692,186.311 70.872,186.311 71.597 C 186.311 71.697,186.204 71.868,186.073 71.976 C 185.942 72.085,185.694 72.674,185.522 73.287 C 185.350 73.899,185.117 74.600,185.004 74.844 C 184.856 75.168,184.776 81.142,184.711 96.800 L 184.622 118.311 176.444 118.311 L 168.267 118.311 168.267 98.044 C 168.267 77.415,168.404 72.924,169.060 72.089 C 169.137 71.991,169.254 71.537,169.320 71.079 C 169.432 70.302,169.939 68.632,170.308 67.822 C 170.397 67.627,170.650 67.027,170.870 66.489 C 172.144 63.375,176.681 58.489,178.298 58.489 C 178.387 58.489,178.486 58.419,178.519 58.333 C 178.718 57.808,186.055 54.756,187.116 54.756 C 187.263 54.756,187.522 54.682,187.691 54.592 C 187.982 54.438,191.535 53.769,192.889 53.613 C 194.387 53.441,199.274 53.696,201.067 54.040 M100.178 55.221 C 100.373 55.331,100.921 55.593,101.395 55.805 C 103.104 56.568,104.678 58.373,105.441 60.445 L 105.867 61.600 105.867 89.956 L 105.867 118.311 97.600 118.311 L 89.333 118.311 89.288 86.844 C 89.263 69.538,89.282 55.272,89.331 55.144 C 89.448 54.836,99.620 54.909,100.178 55.221 M134.400 67.931 C 128.377 68.613,125.467 72.500,123.700 82.222 C 123.454 83.578,123.459 91.300,123.708 92.711 C 124.169 95.335,124.299 95.911,124.720 97.204 C 126.469 102.585,129.247 104.905,134.533 105.402 C 141.907 106.094,146.731 102.723,148.539 95.617 C 150.821 86.644,149.686 77.832,145.499 72.019 C 144.606 70.779,142.341 68.802,141.810 68.799 C 141.695 68.798,141.360 68.670,141.067 68.513 C 139.909 67.894,136.979 67.638,134.400 67.931 " stroke="none" fill="#f4f3f3" fill-rule="evenodd"></path><path id="path3" d="M52.844 34.088 C 53.602 34.121,54.842 34.121,55.600 34.088 C 56.358 34.054,55.738 34.027,54.222 34.027 C 52.707 34.027,52.087 34.054,52.844 34.088 M49.200 34.264 C 49.616 34.301,50.296 34.301,50.711 34.264 C 51.127 34.226,50.787 34.195,49.956 34.195 C 49.124 34.195,48.784 34.226,49.200 34.264 M57.822 34.263 C 58.189 34.301,58.789 34.301,59.156 34.263 C 59.522 34.224,59.222 34.193,58.489 34.193 C 57.756 34.193,57.456 34.224,57.822 34.263 M44.533 34.849 C 44.296 34.954,44.444 34.971,44.978 34.901 C 45.418 34.843,45.811 34.766,45.852 34.731 C 46.006 34.597,44.873 34.699,44.533 34.849 M62.059 34.731 C 62.100 34.767,62.489 34.841,62.924 34.897 C 63.436 34.962,63.624 34.940,63.457 34.835 C 63.220 34.685,61.893 34.586,62.059 34.731 M41.956 35.378 C 41.589 35.495,41.574 35.523,41.867 35.535 C 42.062 35.543,42.342 35.473,42.489 35.378 C 42.800 35.176,42.584 35.176,41.956 35.378 M67.733 36.059 C 67.880 36.150,68.200 36.277,68.444 36.343 C 68.753 36.425,68.808 36.411,68.622 36.297 C 68.476 36.206,68.156 36.078,67.911 36.013 C 67.602 35.930,67.548 35.944,67.733 36.059 M89.330 42.933 L 89.333 49.511 97.600 49.511 L 105.867 49.511 105.873 46.756 L 105.880 44.000 105.824 46.711 L 105.769 49.422 97.598 49.422 L 89.427 49.422 89.377 42.889 L 89.327 36.356 89.330 42.933 M100.089 36.770 C 100.236 36.861,100.556 36.988,100.800 37.054 C 101.109 37.136,101.163 37.122,100.978 37.008 C 100.831 36.917,100.511 36.790,100.267 36.724 C 99.958 36.642,99.904 36.655,100.089 36.770 M104.835 40.798 C 104.997 41.139,105.162 41.386,105.201 41.348 C 105.282 41.266,104.742 40.178,104.621 40.178 C 104.576 40.178,104.672 40.457,104.835 40.798 M77.067 41.600 C 77.449 41.991,77.801 42.311,77.850 42.311 C 77.899 42.311,77.626 41.991,77.244 41.600 C 76.863 41.209,76.510 40.889,76.461 40.889 C 76.412 40.889,76.685 41.209,77.067 41.600 M29.690 41.866 C 29.460 42.110,29.306 42.339,29.347 42.376 C 29.389 42.412,29.608 42.213,29.836 41.932 C 30.345 41.305,30.255 41.264,29.690 41.866 M105.541 42.756 C 105.676 43.634,105.779 43.784,105.775 43.096 C 105.774 42.811,105.696 42.458,105.602 42.311 C 105.487 42.130,105.467 42.271,105.541 42.756 M28.511 43.244 C 27.987 43.843,27.680 44.267,27.771 44.267 C 27.815 44.267,28.109 43.947,28.423 43.556 C 29.033 42.796,29.095 42.578,28.511 43.244 M26.044 46.756 C 25.893 47.049,25.809 47.289,25.858 47.289 C 25.906 47.289,26.071 47.049,26.222 46.756 C 26.374 46.462,26.458 46.222,26.409 46.222 C 26.360 46.222,26.196 46.462,26.044 46.756 M25.451 47.919 C 25.153 48.572,25.210 48.712,25.532 48.118 C 25.683 47.840,25.772 47.580,25.732 47.539 C 25.691 47.498,25.565 47.669,25.451 47.919 M56.187 48.187 C 56.425 48.338,57.752 48.436,57.585 48.291 C 57.544 48.256,57.155 48.181,56.720 48.126 C 56.209 48.060,56.020 48.082,56.187 48.187 M48.491 48.304 C 48.712 48.346,49.032 48.344,49.202 48.300 C 49.372 48.255,49.191 48.221,48.800 48.223 C 48.409 48.225,48.270 48.261,48.491 48.304 M58.931 48.707 C 58.979 48.785,59.305 48.902,59.655 48.968 C 60.005 49.034,60.426 49.136,60.590 49.194 C 60.755 49.253,60.837 49.243,60.774 49.173 C 60.609 48.988,58.826 48.537,58.931 48.707 M44.400 49.524 C 43.711 49.898,43.789 50.027,44.489 49.671 C 45.159 49.330,45.278 49.242,45.052 49.252 C 44.962 49.255,44.669 49.378,44.400 49.524 M61.333 49.511 C 61.578 49.651,61.858 49.765,61.956 49.765 C 62.053 49.765,61.933 49.651,61.689 49.511 C 61.444 49.371,61.164 49.257,61.067 49.257 C 60.969 49.257,61.089 49.371,61.333 49.511 M82.519 50.142 C 82.623 50.441,82.741 50.652,82.781 50.612 C 82.869 50.523,82.534 49.600,82.414 49.600 C 82.367 49.600,82.415 49.844,82.519 50.142 M42.127 51.333 L 41.156 52.356 42.178 51.384 C 43.127 50.481,43.281 50.311,43.149 50.311 C 43.122 50.311,42.662 50.771,42.127 51.333 M65.067 51.822 C 65.398 52.164,65.710 52.444,65.759 52.444 C 65.808 52.444,65.576 52.164,65.244 51.822 C 64.913 51.480,64.601 51.200,64.552 51.200 C 64.504 51.200,64.735 51.480,65.067 51.822 M83.158 52.008 C 83.204 52.251,83.301 52.486,83.373 52.531 C 83.445 52.575,83.466 52.413,83.420 52.170 C 83.373 51.927,83.276 51.692,83.204 51.647 C 83.132 51.603,83.112 51.765,83.158 52.008 M66.395 53.422 C 67.234 54.541,67.343 54.641,66.917 53.900 C 66.730 53.577,66.387 53.137,66.153 52.923 C 65.903 52.693,66.002 52.899,66.395 53.422 M40.207 53.963 C 39.909 54.617,39.966 54.756,40.288 54.162 C 40.438 53.885,40.528 53.624,40.487 53.584 C 40.447 53.543,40.320 53.714,40.207 53.963 M137.467 53.634 C 137.638 53.678,137.918 53.678,138.089 53.634 C 138.260 53.589,138.120 53.552,137.778 53.552 C 137.436 53.552,137.296 53.589,137.467 53.634 M129.778 53.865 C 129.519 53.947,129.854 53.967,130.578 53.912 C 131.262 53.860,131.856 53.788,131.896 53.753 C 132.039 53.629,130.217 53.726,129.778 53.865 M138.504 53.753 C 138.544 53.789,139.178 53.859,139.911 53.910 C 140.663 53.962,141.051 53.942,140.800 53.863 C 140.359 53.725,138.362 53.630,138.504 53.753 M191.111 53.865 C 190.853 53.947,191.188 53.967,191.911 53.912 C 192.596 53.860,193.189 53.788,193.230 53.753 C 193.373 53.629,191.551 53.726,191.111 53.865 M198.267 53.816 C 198.536 53.857,198.976 53.857,199.244 53.816 C 199.513 53.775,199.293 53.742,198.756 53.742 C 198.218 53.742,197.998 53.775,198.267 53.816 M83.854 54.667 C 83.912 55.058,84.025 55.498,84.105 55.644 C 84.189 55.797,84.206 55.608,84.146 55.200 C 84.088 54.809,83.975 54.369,83.895 54.222 C 83.811 54.069,83.794 54.259,83.854 54.667 M126.933 54.350 C 126.689 54.394,126.419 54.497,126.334 54.579 C 126.249 54.661,126.475 54.661,126.837 54.580 C 127.199 54.498,127.542 54.384,127.599 54.327 C 127.708 54.218,127.664 54.219,126.933 54.350 M187.664 54.546 C 187.615 54.626,187.810 54.657,188.098 54.614 C 188.386 54.572,188.622 54.507,188.622 54.469 C 188.622 54.333,187.752 54.403,187.664 54.546 M202.681 54.464 C 202.722 54.499,202.996 54.581,203.289 54.647 C 203.678 54.734,203.750 54.718,203.556 54.586 C 203.315 54.423,202.503 54.310,202.681 54.464 M89.327 55.156 C 89.280 55.278,89.263 69.538,89.288 86.844 L 89.333 118.311 97.600 118.311 L 105.867 118.311 105.868 90.311 L 105.868 62.311 105.823 90.267 L 105.777 118.222 97.598 118.222 L 89.420 118.222 89.466 86.578 C 89.491 69.173,89.489 54.933,89.461 54.933 C 89.434 54.933,89.373 55.033,89.327 55.156 M206.578 55.614 C 206.724 55.705,207.044 55.833,207.289 55.898 C 207.598 55.981,207.652 55.967,207.467 55.852 C 207.320 55.762,207.000 55.634,206.756 55.569 C 206.447 55.486,206.392 55.500,206.578 55.614 M39.529 57.600 C 39.529 58.431,39.559 58.771,39.597 58.356 C 39.634 57.940,39.634 57.260,39.597 56.844 C 39.559 56.429,39.529 56.769,39.529 57.600 M103.464 57.511 C 104.092 58.196,104.641 58.796,104.683 58.844 C 104.725 58.893,104.674 58.773,104.571 58.578 C 104.467 58.382,103.918 57.782,103.352 57.244 L 102.321 56.267 103.464 57.511 M209.676 56.883 C 210.060 57.082,210.418 57.244,210.471 57.244 C 210.691 57.244,209.833 56.750,209.422 56.640 C 209.167 56.571,209.275 56.675,209.676 56.883 M151.644 57.333 C 152.280 57.666,152.880 57.938,152.978 57.938 C 153.076 57.938,152.636 57.666,152.000 57.333 C 151.364 57.001,150.764 56.728,150.667 56.728 C 150.569 56.728,151.009 57.001,151.644 57.333 M69.326 57.822 C 69.762 58.287,70.142 58.667,70.170 58.667 C 70.304 58.667,70.163 58.507,69.378 57.770 L 68.533 56.978 69.326 57.822 M23.353 58.844 C 23.353 59.773,23.383 60.153,23.420 59.689 C 23.456 59.224,23.456 58.464,23.420 58.000 C 23.383 57.536,23.353 57.916,23.353 58.844 M119.200 57.704 L 118.667 58.163 119.244 57.780 C 119.562 57.570,119.822 57.363,119.822 57.321 C 119.822 57.188,119.747 57.235,119.200 57.704 M84.479 58.708 L 84.444 60.083 79.422 60.133 L 74.400 60.184 79.428 60.225 C 85.144 60.272,84.672 60.425,84.577 58.560 L 84.514 57.333 84.479 58.708 M175.884 59.986 C 175.312 60.418,174.524 61.114,174.133 61.533 C 173.621 62.081,173.740 62.006,174.559 61.265 C 175.185 60.700,176.005 60.033,176.382 59.784 C 177.007 59.370,177.186 59.200,176.995 59.200 C 176.956 59.200,176.456 59.554,175.884 59.986 M115.911 60.356 C 115.479 60.796,115.166 61.156,115.215 61.156 C 115.264 61.156,115.657 60.796,116.089 60.356 C 116.521 59.916,116.834 59.556,116.785 59.556 C 116.736 59.556,116.343 59.916,115.911 60.356 M72.800 59.903 C 73.141 60.057,74.093 60.158,73.941 60.024 C 73.900 59.988,73.547 59.910,73.156 59.850 C 72.660 59.775,72.552 59.791,72.800 59.903 M216.170 61.022 C 216.907 61.807,217.067 61.948,217.067 61.815 C 217.067 61.786,216.687 61.406,216.222 60.970 L 215.378 60.178 216.170 61.022 M159.119 62.299 C 159.857 63.088,160.642 63.973,160.862 64.267 C 161.176 64.682,161.217 64.704,161.051 64.365 C 160.934 64.125,160.150 63.240,159.308 62.397 L 157.778 60.865 159.119 62.299 M105.641 61.689 C 105.641 62.031,105.678 62.171,105.723 62.000 C 105.767 61.829,105.767 61.549,105.723 61.378 C 105.678 61.207,105.641 61.347,105.641 61.689 M41.067 61.922 C 41.067 61.953,41.327 62.213,41.644 62.500 L 42.222 63.022 41.700 62.444 C 41.213 61.906,41.067 61.785,41.067 61.922 M173.045 62.800 C 172.520 63.399,172.213 63.822,172.304 63.822 C 172.349 63.822,172.642 63.502,172.956 63.111 C 173.567 62.352,173.628 62.134,173.045 62.800 M23.647 63.837 C 23.649 64.171,23.723 64.560,23.813 64.702 C 23.918 64.868,23.940 64.680,23.874 64.169 C 23.749 63.187,23.644 63.033,23.647 63.837 M111.725 66.328 C 111.568 66.630,111.472 66.909,111.511 66.948 C 111.549 66.986,111.714 66.739,111.876 66.398 C 112.242 65.631,112.115 65.572,111.725 66.328 M219.740 66.335 C 219.736 66.397,219.850 66.717,219.993 67.046 C 220.136 67.375,220.253 67.524,220.253 67.378 C 220.254 67.122,219.753 66.104,219.740 66.335 M197.511 67.192 C 197.658 67.291,197.931 67.374,198.119 67.375 C 198.573 67.379,198.431 67.277,197.778 67.131 C 197.388 67.044,197.316 67.060,197.511 67.192 M52.800 67.351 C 52.947 67.437,53.307 67.559,53.600 67.623 C 53.941 67.697,54.037 67.682,53.867 67.582 C 53.720 67.496,53.360 67.374,53.067 67.310 C 52.725 67.237,52.629 67.251,52.800 67.351 M192.000 67.386 C 191.805 67.518,191.877 67.534,192.267 67.447 C 192.920 67.301,193.062 67.199,192.607 67.203 C 192.420 67.204,192.147 67.287,192.000 67.386 M134.447 67.861 C 134.717 67.902,135.117 67.901,135.336 67.858 C 135.554 67.816,135.333 67.783,134.844 67.784 C 134.356 67.786,134.177 67.820,134.447 67.861 M137.793 67.798 C 137.833 67.833,138.347 67.906,138.933 67.961 C 139.596 68.023,139.832 68.005,139.556 67.914 C 139.117 67.771,137.649 67.673,137.793 67.798 M170.124 68.202 C 170.026 68.460,169.979 68.705,170.019 68.745 C 170.059 68.785,170.177 68.574,170.281 68.276 C 170.512 67.613,170.373 67.548,170.124 68.202 M55.289 68.081 C 55.436 68.180,55.709 68.262,55.896 68.264 C 56.351 68.268,56.209 68.166,55.556 68.020 C 55.166 67.932,55.094 67.949,55.289 68.081 M163.230 68.631 C 163.334 68.930,163.452 69.141,163.492 69.100 C 163.580 69.012,163.245 68.089,163.125 68.089 C 163.079 68.089,163.126 68.333,163.230 68.631 M131.467 68.540 C 131.022 68.754,131.007 68.778,131.378 68.688 C 131.882 68.565,132.448 68.276,132.178 68.280 C 132.080 68.282,131.760 68.398,131.467 68.540 M140.800 68.369 C 140.800 68.489,141.723 68.825,141.812 68.737 C 141.852 68.696,141.641 68.578,141.342 68.474 C 141.044 68.370,140.800 68.323,140.800 68.369 M59.644 69.156 C 59.840 69.240,60.120 69.308,60.267 69.308 C 60.435 69.308,60.402 69.252,60.178 69.156 C 59.982 69.072,59.702 69.003,59.556 69.003 C 59.387 69.003,59.420 69.059,59.644 69.156 M202.311 69.202 C 202.311 69.243,202.731 69.628,203.244 70.056 C 203.758 70.484,204.065 70.694,203.928 70.522 C 203.652 70.176,202.311 69.081,202.311 69.202 M128.385 70.533 L 127.172 71.733 128.342 70.677 C 128.985 70.097,129.587 69.557,129.680 69.477 C 129.773 69.398,129.792 69.333,129.723 69.333 C 129.654 69.333,129.052 69.873,128.385 70.533 M142.933 69.380 C 142.933 69.420,143.273 69.722,143.689 70.052 C 144.104 70.382,144.332 70.512,144.194 70.340 C 143.934 70.017,142.933 69.255,142.933 69.380 M61.600 69.784 C 61.893 69.919,62.253 70.026,62.400 70.023 C 62.547 70.020,62.387 69.910,62.044 69.778 C 61.233 69.465,60.913 69.470,61.600 69.784 M169.524 69.968 C 169.458 70.229,169.439 70.476,169.481 70.518 C 169.523 70.560,169.611 70.381,169.676 70.121 C 169.742 69.860,169.761 69.613,169.719 69.571 C 169.677 69.529,169.589 69.708,169.524 69.968 M163.949 70.600 C 164.053 71.028,164.201 71.448,164.278 71.533 C 164.355 71.619,164.333 71.339,164.229 70.911 C 164.125 70.483,163.977 70.063,163.900 69.978 C 163.823 69.892,163.845 70.172,163.949 70.600 M68.711 71.798 C 68.907 71.884,69.347 72.005,69.689 72.067 C 70.116 72.144,70.200 72.131,69.956 72.024 C 69.760 71.938,69.320 71.818,68.978 71.756 C 68.551 71.678,68.467 71.691,68.711 71.798 M145.600 72.178 C 145.809 72.471,146.020 72.711,146.069 72.711 C 146.118 72.711,145.987 72.471,145.778 72.178 C 145.569 71.884,145.358 71.644,145.309 71.644 C 145.260 71.644,145.391 71.884,145.600 72.178 M168.958 72.254 C 168.905 72.393,168.891 72.693,168.927 72.920 C 168.976 73.224,169.017 73.157,169.083 72.667 C 169.176 71.976,169.127 71.814,168.958 72.254 M164.553 72.622 C 164.699 73.276,164.801 73.418,164.797 72.963 C 164.796 72.776,164.713 72.502,164.614 72.356 C 164.482 72.161,164.466 72.233,164.553 72.622 M109.067 72.889 C 108.999 73.196,108.981 73.485,109.026 73.530 C 109.072 73.575,109.160 73.357,109.222 73.044 C 109.370 72.303,109.227 72.160,109.067 72.889 M205.185 72.898 C 205.289 73.196,205.407 73.407,205.448 73.367 C 205.536 73.279,205.200 72.356,205.080 72.356 C 205.034 72.356,205.081 72.600,205.185 72.898 M126.311 73.067 C 126.159 73.360,126.075 73.600,126.124 73.600 C 126.173 73.600,126.337 73.360,126.489 73.067 C 126.641 72.773,126.725 72.533,126.676 72.533 C 126.627 72.533,126.463 72.773,126.311 73.067 M221.734 73.689 C 221.736 74.080,221.772 74.219,221.815 73.998 C 221.857 73.777,221.856 73.457,221.811 73.287 C 221.767 73.117,221.732 73.298,221.734 73.689 M73.600 73.511 C 73.844 73.651,74.124 73.765,74.222 73.765 C 74.320 73.765,74.200 73.651,73.956 73.511 C 73.711 73.371,73.431 73.257,73.333 73.257 C 73.236 73.257,73.356 73.371,73.600 73.511 M164.841 73.867 C 164.842 74.160,164.903 74.640,164.978 74.933 C 165.166 75.673,165.174 74.945,164.988 74.044 C 164.864 73.447,164.841 73.418,164.841 73.867 M28.978 75.111 C 29.608 75.747,30.163 76.267,30.212 76.267 C 30.261 76.267,29.785 75.747,29.156 75.111 C 28.526 74.476,27.970 73.956,27.921 73.956 C 27.872 73.956,28.348 74.476,28.978 75.111 M125.540 74.763 C 125.426 75.013,125.336 75.313,125.340 75.431 C 125.344 75.548,125.465 75.372,125.610 75.040 C 125.913 74.340,125.849 74.085,125.540 74.763 M108.555 74.762 C 108.494 74.921,108.453 75.225,108.463 75.437 C 108.474 75.680,108.535 75.594,108.627 75.201 C 108.782 74.541,108.740 74.281,108.555 74.762 M205.858 75.249 C 205.945 75.982,205.948 75.985,206.009 75.400 C 206.043 75.069,206.003 74.731,205.920 74.649 C 205.837 74.566,205.809 74.836,205.858 75.249 M79.733 76.737 C 80.757 77.760,82.490 79.276,81.867 78.603 C 81.476 78.181,80.756 77.509,80.267 77.109 C 79.778 76.709,79.538 76.542,79.733 76.737 M148.380 77.778 C 148.566 78.624,148.821 79.132,148.692 78.400 C 148.631 78.058,148.509 77.658,148.422 77.511 C 148.317 77.337,148.303 77.429,148.380 77.778 M184.577 97.733 L 184.533 118.222 176.445 118.222 L 168.357 118.222 168.311 98.044 L 168.264 77.867 168.266 98.089 L 168.267 118.311 176.405 118.357 C 182.821 118.394,184.561 118.356,184.628 118.180 C 184.675 118.056,184.693 108.796,184.667 97.600 L 184.621 77.244 184.577 97.733 M222.266 97.730 L 222.222 118.216 217.467 118.267 L 212.711 118.317 217.472 118.359 C 221.148 118.391,222.253 118.349,222.318 118.178 C 222.365 118.056,222.382 108.796,222.356 97.600 L 222.310 77.244 222.266 97.730 M165.597 99.467 C 165.597 111.200,165.618 116.026,165.644 110.192 C 165.670 104.357,165.670 94.757,165.644 88.858 C 165.618 82.960,165.597 87.733,165.597 99.467 M124.003 79.911 C 123.754 81.112,123.732 81.327,123.885 81.067 C 124.056 80.774,124.289 79.467,124.170 79.467 C 124.129 79.467,124.054 79.667,124.003 79.911 M37.511 80.103 C 37.511 80.223,38.435 80.558,38.523 80.470 C 38.563 80.430,38.352 80.312,38.054 80.208 C 37.755 80.104,37.511 80.056,37.511 80.103 M107.612 81.422 C 107.612 82.058,107.645 82.318,107.684 82.000 C 107.724 81.682,107.724 81.162,107.684 80.844 C 107.645 80.527,107.612 80.787,107.612 81.422 M149.197 81.067 C 149.197 81.409,149.233 81.549,149.278 81.378 C 149.323 81.207,149.323 80.927,149.278 80.756 C 149.233 80.584,149.197 80.724,149.197 81.067 M39.644 80.866 C 39.791 80.954,40.191 81.075,40.533 81.136 C 40.953 81.210,41.040 81.197,40.800 81.094 C 40.250 80.859,39.329 80.677,39.644 80.866 M42.400 81.694 C 42.791 81.823,43.271 81.927,43.467 81.926 C 43.662 81.925,43.422 81.812,42.933 81.676 C 41.821 81.367,41.445 81.379,42.400 81.694 M45.689 82.467 C 45.836 82.550,46.236 82.667,46.578 82.728 C 46.952 82.794,47.094 82.779,46.933 82.688 C 46.787 82.605,46.387 82.488,46.044 82.427 C 45.670 82.361,45.528 82.377,45.689 82.467 M107.454 86.489 C 107.454 88.640,107.479 89.496,107.511 88.390 C 107.542 87.285,107.542 85.525,107.510 84.479 C 107.479 83.433,107.453 84.338,107.454 86.489 M84.990 83.111 C 84.990 83.209,85.105 83.489,85.244 83.733 C 85.384 83.978,85.499 84.098,85.499 84.000 C 85.499 83.902,85.384 83.622,85.244 83.378 C 85.105 83.133,84.990 83.013,84.990 83.111 M50.933 83.911 C 51.129 83.995,51.449 84.062,51.644 84.059 C 51.930 84.054,51.913 84.026,51.556 83.911 C 50.948 83.716,50.480 83.716,50.933 83.911 M54.127 84.718 C 54.613 84.852,55.040 84.930,55.077 84.893 C 55.166 84.804,53.853 84.442,53.511 84.461 C 53.364 84.470,53.642 84.585,54.127 84.718 M55.644 85.133 C 55.791 85.221,56.191 85.342,56.533 85.403 C 56.953 85.477,57.040 85.463,56.800 85.361 C 56.250 85.125,55.329 84.944,55.644 85.133 M123.264 87.111 C 123.264 88.040,123.294 88.420,123.331 87.956 C 123.367 87.491,123.367 86.731,123.331 86.267 C 123.294 85.802,123.264 86.182,123.264 87.111 M86.155 86.133 C 86.218 86.427,86.341 86.787,86.426 86.933 C 86.526 87.104,86.541 87.008,86.467 86.667 C 86.404 86.373,86.282 86.013,86.196 85.867 C 86.096 85.696,86.081 85.792,86.155 86.133 M59.200 86.147 C 59.200 86.267,60.123 86.602,60.212 86.514 C 60.252 86.474,60.041 86.356,59.742 86.252 C 59.444 86.148,59.200 86.101,59.200 86.147 M65.244 88.791 C 65.244 88.840,65.484 89.004,65.778 89.156 C 66.071 89.307,66.311 89.391,66.311 89.342 C 66.311 89.294,66.071 89.129,65.778 88.978 C 65.484 88.826,65.244 88.742,65.244 88.791 M86.978 89.689 C 86.980 90.080,87.017 90.219,87.059 89.998 C 87.102 89.777,87.100 89.457,87.055 89.287 C 87.011 89.117,86.976 89.298,86.978 89.689 M123.419 89.600 C 123.419 89.942,123.456 90.082,123.500 89.911 C 123.545 89.740,123.545 89.460,123.500 89.289 C 123.456 89.118,123.419 89.258,123.419 89.600 M107.612 91.556 C 107.612 92.191,107.645 92.451,107.684 92.133 C 107.724 91.816,107.724 91.296,107.684 90.978 C 107.645 90.660,107.612 90.920,107.612 91.556 M69.333 91.911 C 69.743 92.400,70.118 92.800,70.166 92.800 C 70.215 92.800,69.920 92.400,69.511 91.911 C 69.102 91.422,68.727 91.022,68.678 91.022 C 68.629 91.022,68.924 91.422,69.333 91.911 M149.184 92.563 C 149.168 92.873,149.110 93.273,149.053 93.452 C 148.957 93.759,148.962 93.760,149.153 93.463 C 149.264 93.290,149.323 92.890,149.284 92.574 L 149.212 92.000 149.184 92.563 M123.852 94.311 C 123.987 95.190,124.090 95.340,124.086 94.652 C 124.085 94.367,124.007 94.013,123.913 93.867 C 123.798 93.685,123.778 93.827,123.852 94.311 M38.768 94.593 C 38.775 94.829,38.853 95.182,38.942 95.378 C 39.054 95.626,39.070 95.518,38.994 95.022 C 38.869 94.197,38.750 93.971,38.768 94.593 M71.065 95.865 C 71.161 97.478,71.245 97.683,71.266 96.356 C 71.275 95.720,71.220 95.099,71.141 94.976 C 71.063 94.853,71.029 95.253,71.065 95.865 M148.543 95.388 C 148.476 95.744,148.457 96.072,148.501 96.115 C 148.544 96.159,148.634 95.902,148.701 95.546 C 148.768 95.189,148.787 94.861,148.744 94.818 C 148.700 94.775,148.610 95.031,148.543 95.388 M108.130 95.556 C 108.131 95.849,108.192 96.329,108.267 96.622 C 108.455 97.362,108.463 96.634,108.277 95.733 C 108.153 95.135,108.130 95.107,108.130 95.556 M22.403 96.548 C 22.404 96.882,22.479 97.271,22.568 97.413 C 22.674 97.580,22.695 97.391,22.630 96.880 C 22.504 95.898,22.399 95.744,22.403 96.548 M124.553 97.067 C 124.613 97.409,124.735 97.809,124.823 97.956 C 125.012 98.271,124.830 97.350,124.595 96.800 C 124.492 96.560,124.479 96.647,124.553 97.067 M108.447 97.615 C 108.449 97.851,108.529 98.164,108.625 98.311 C 108.748 98.499,108.766 98.393,108.685 97.956 C 108.545 97.189,108.444 97.044,108.447 97.615 M86.963 98.163 C 86.947 98.522,86.887 98.962,86.831 99.141 C 86.735 99.448,86.740 99.448,86.930 99.152 C 87.041 98.980,87.101 98.540,87.063 98.175 L 86.993 97.511 86.963 98.163 M124.990 98.400 C 124.990 98.498,125.105 98.778,125.244 99.022 C 125.384 99.267,125.499 99.387,125.499 99.289 C 125.499 99.191,125.384 98.911,125.244 98.667 C 125.105 98.422,124.990 98.302,124.990 98.400 M146.862 99.833 C 146.656 100.181,146.569 100.416,146.668 100.355 C 146.860 100.236,147.437 99.200,147.311 99.200 C 147.269 99.200,147.067 99.485,146.862 99.833 M23.042 99.822 C 23.188 100.476,23.290 100.618,23.286 100.163 C 23.285 99.976,23.202 99.702,23.103 99.556 C 22.971 99.361,22.955 99.433,23.042 99.822 M40.889 99.911 C 41.098 100.204,41.309 100.444,41.358 100.444 C 41.406 100.444,41.276 100.204,41.067 99.911 C 40.858 99.618,40.647 99.378,40.598 99.378 C 40.549 99.378,40.680 99.618,40.889 99.911 M86.222 101.867 C 86.112 102.278,86.056 102.648,86.098 102.691 C 86.141 102.734,86.262 102.428,86.368 102.012 C 86.473 101.596,86.529 101.225,86.491 101.188 C 86.454 101.150,86.333 101.456,86.222 101.867 M68.527 102.622 L 67.644 103.556 68.578 102.673 C 69.091 102.188,69.511 101.768,69.511 101.740 C 69.511 101.607,69.346 101.755,68.527 102.622 M127.467 102.464 C 127.907 102.934,128.507 103.484,128.800 103.688 C 129.418 104.116,129.368 104.064,127.822 102.660 C 126.795 101.727,126.756 101.705,127.467 102.464 M65.956 104.356 C 65.613 104.543,65.397 104.700,65.475 104.704 C 65.664 104.714,66.667 104.192,66.667 104.084 C 66.667 103.968,66.656 103.972,65.956 104.356 M24.726 104.622 C 24.726 104.720,24.879 105.080,25.067 105.422 C 25.254 105.764,25.407 105.964,25.407 105.867 C 25.407 105.769,25.254 105.409,25.067 105.067 C 24.879 104.724,24.726 104.524,24.726 104.622 M47.289 104.681 C 47.436 104.772,47.756 104.899,48.000 104.965 C 48.309 105.047,48.363 105.033,48.178 104.919 C 48.031 104.828,47.711 104.701,47.467 104.635 C 47.158 104.553,47.104 104.567,47.289 104.681 M85.184 104.985 C 84.887 105.639,84.943 105.779,85.265 105.184 C 85.416 104.907,85.506 104.646,85.465 104.606 C 85.424 104.565,85.298 104.736,85.184 104.985 M141.067 104.806 C 140.622 105.020,140.607 105.045,140.978 104.955 C 141.482 104.831,142.048 104.543,141.778 104.547 C 141.680 104.548,141.360 104.665,141.067 104.806 M131.111 104.889 C 131.307 104.973,131.587 105.042,131.733 105.042 C 131.901 105.042,131.869 104.985,131.644 104.889 C 131.449 104.805,131.169 104.736,131.022 104.736 C 130.854 104.736,130.887 104.793,131.111 104.889 M49.600 105.420 C 49.747 105.516,50.060 105.596,50.296 105.597 C 50.867 105.601,50.722 105.500,49.956 105.359 C 49.518 105.279,49.412 105.297,49.600 105.420 M62.844 105.422 C 62.352 105.547,62.346 105.559,62.756 105.576 C 63.000 105.586,63.320 105.517,63.467 105.422 C 63.769 105.227,63.613 105.227,62.844 105.422 M133.422 105.431 C 133.618 105.510,134.258 105.574,134.844 105.573 C 136.185 105.572,135.937 105.477,134.311 105.369 C 133.588 105.322,133.216 105.348,133.422 105.431 M137.956 105.422 L 136.800 105.539 137.867 105.557 C 138.453 105.567,139.093 105.506,139.289 105.422 C 139.681 105.254,139.630 105.254,137.956 105.422 M111.627 105.867 C 111.926 106.447,112.172 106.768,112.171 106.578 C 112.170 106.480,112.006 106.200,111.806 105.956 C 111.565 105.660,111.505 105.631,111.627 105.867 M54.444 106.078 C 54.616 106.123,54.896 106.123,55.067 106.078 C 55.238 106.033,55.098 105.997,54.756 105.997 C 54.413 105.997,54.273 106.033,54.444 106.078 M58.269 106.081 C 58.490 106.124,58.810 106.122,58.980 106.078 C 59.150 106.033,58.969 105.998,58.578 106.000 C 58.187 106.002,58.048 106.039,58.269 106.081 M25.429 106.222 C 25.430 106.320,25.594 106.600,25.794 106.844 C 26.035 107.140,26.095 107.169,25.973 106.933 C 25.674 106.353,25.428 106.032,25.429 106.222 M56.044 106.261 C 56.313 106.301,56.753 106.301,57.022 106.261 C 57.291 106.220,57.071 106.187,56.533 106.187 C 55.996 106.187,55.776 106.220,56.044 106.261 M112.889 107.911 C 113.098 108.204,113.309 108.444,113.358 108.444 C 113.406 108.444,113.276 108.204,113.067 107.911 C 112.858 107.618,112.647 107.378,112.598 107.378 C 112.549 107.378,112.680 107.618,112.889 107.911 M81.498 110.978 C 80.490 112.082,80.116 112.533,80.209 112.533 C 80.260 112.533,80.720 112.053,81.230 111.467 C 82.205 110.345,82.401 109.988,81.498 110.978 M29.681 111.867 C 30.117 112.331,30.497 112.711,30.526 112.711 C 30.659 112.711,30.518 112.551,29.733 111.815 L 28.889 111.022 29.681 111.867 M116.711 112.533 C 117.292 113.120,117.807 113.600,117.856 113.600 C 117.904 113.600,117.469 113.120,116.889 112.533 C 116.308 111.947,115.793 111.467,115.744 111.467 C 115.696 111.467,116.131 111.947,116.711 112.533 M148.433 112.400 C 148.005 112.913,147.795 113.221,147.967 113.084 C 148.313 112.808,149.408 111.467,149.287 111.467 C 149.245 111.467,148.861 111.887,148.433 112.400 M78.756 113.636 C 78.218 114.136,78.018 114.380,78.311 114.178 C 78.817 113.829,79.976 112.702,79.811 112.719 C 79.768 112.724,79.293 113.136,78.756 113.636 M30.933 112.928 C 30.933 112.963,31.313 113.304,31.778 113.685 C 32.242 114.067,32.462 114.195,32.267 113.971 C 31.921 113.573,30.933 112.801,30.933 112.928 M206.591 113.244 C 206.590 113.501,207.092 114.518,207.105 114.287 C 207.108 114.225,206.994 113.905,206.851 113.576 C 206.709 113.247,206.591 113.098,206.591 113.244 M146.925 114.178 L 146.222 114.933 146.978 114.231 C 147.393 113.844,147.733 113.504,147.733 113.475 C 147.733 113.341,147.579 113.475,146.925 114.178 M207.274 114.788 C 207.543 115.331,209.083 116.883,209.608 117.139 C 209.954 117.309,209.934 117.269,209.511 116.948 C 208.840 116.437,208.220 115.819,207.581 115.022 C 207.307 114.680,207.169 114.575,207.274 114.788 M120.120 115.326 C 120.430 115.599,120.950 115.974,121.275 116.159 C 122.079 116.616,121.722 116.294,120.533 115.491 C 119.827 115.013,119.712 114.967,120.120 115.326 M145.244 115.586 C 144.779 116.009,144.667 116.162,144.978 115.953 C 145.469 115.623,146.284 114.834,146.116 114.852 C 146.077 114.856,145.684 115.186,145.244 115.586 M74.133 116.533 C 73.693 116.769,73.397 116.965,73.474 116.970 C 73.663 116.981,75.022 116.282,75.022 116.174 C 75.022 116.056,75.030 116.053,74.133 116.533 M37.156 117.067 C 37.400 117.206,37.680 117.321,37.778 117.321 C 37.876 117.321,37.756 117.206,37.511 117.067 C 37.267 116.927,36.987 116.813,36.889 116.813 C 36.791 116.813,36.911 116.927,37.156 117.067 M142.630 117.220 C 141.709 117.705,141.427 117.961,142.155 117.651 C 142.673 117.431,143.649 116.814,143.467 116.823 C 143.418 116.825,143.041 117.004,142.630 117.220 M38.044 117.393 C 38.044 117.439,38.303 117.566,38.618 117.676 C 38.934 117.786,39.114 117.803,39.018 117.714 C 38.816 117.524,38.044 117.270,38.044 117.393 M149.248 118.133 C 148.999 119.334,148.976 119.550,149.129 119.289 C 149.300 118.996,149.534 117.689,149.414 117.689 C 149.374 117.689,149.299 117.889,149.248 118.133 M140.178 118.317 C 139.731 118.533,139.717 118.557,140.089 118.467 C 140.333 118.408,140.609 118.289,140.702 118.202 C 140.933 117.987,140.806 118.015,140.178 118.317 M67.200 118.933 C 66.834 119.051,66.818 119.078,67.111 119.091 C 67.307 119.099,67.587 119.028,67.733 118.933 C 68.045 118.732,67.829 118.732,67.200 118.933 M128.356 118.931 C 128.502 119.027,128.816 119.107,129.052 119.108 C 129.622 119.112,129.478 119.011,128.711 118.870 C 128.273 118.790,128.168 118.808,128.356 118.931 M137.778 118.933 C 137.412 119.051,137.396 119.078,137.689 119.091 C 137.884 119.099,138.164 119.028,138.311 118.933 C 138.623 118.732,138.406 118.732,137.778 118.933 M64.000 119.568 L 62.667 119.801 63.911 119.705 C 64.596 119.652,65.276 119.540,65.422 119.454 C 65.743 119.268,65.692 119.272,64.000 119.568 M45.378 119.589 C 45.549 119.634,45.829 119.634,46.000 119.589 C 46.171 119.544,46.031 119.508,45.689 119.508 C 45.347 119.508,45.207 119.544,45.378 119.589 M132.937 119.596 C 133.256 119.635,133.736 119.634,134.003 119.594 C 134.270 119.553,134.009 119.521,133.422 119.522 C 132.836 119.523,132.617 119.556,132.937 119.596 M53.121 120.311 C 54.325 120.341,56.245 120.341,57.388 120.310 C 58.531 120.280,57.547 120.254,55.200 120.254 C 52.853 120.255,51.918 120.280,53.121 120.311 M147.036 124.477 C 146.721 124.984,146.572 125.308,146.704 125.198 C 146.957 124.989,147.810 123.556,147.682 123.556 C 147.642 123.556,147.351 123.970,147.036 124.477 M164.797 125.011 C 164.678 125.726,164.538 126.391,164.487 126.489 C 164.424 126.607,164.454 126.607,164.576 126.489 C 164.772 126.299,165.227 123.924,165.094 123.790 C 165.050 123.746,164.916 124.295,164.797 125.011 M108.919 124.385 C 108.693 124.610,108.800 124.843,109.038 124.646 C 109.204 124.508,111.798 124.433,117.527 124.400 L 125.778 124.352 117.407 124.309 C 112.804 124.286,108.984 124.320,108.919 124.385 M109.080 125.600 C 109.137 125.991,109.254 126.384,109.341 126.474 C 109.428 126.563,109.417 126.323,109.317 125.940 C 109.049 124.918,108.964 124.795,109.080 125.600 M127.691 126.857 C 128.255 127.445,128.975 128.066,129.291 128.237 C 129.845 128.537,129.850 128.537,129.422 128.233 C 129.178 128.060,128.458 127.439,127.822 126.853 L 126.667 125.789 127.691 126.857 M144.611 127.511 L 144.089 128.089 144.667 127.567 C 144.984 127.280,145.244 127.020,145.244 126.989 C 145.244 126.852,145.098 126.973,144.611 127.511 M162.578 131.556 C 162.426 131.849,162.342 132.089,162.391 132.089 C 162.440 132.089,162.604 131.849,162.756 131.556 C 162.907 131.262,162.991 131.022,162.942 131.022 C 162.894 131.022,162.729 131.262,162.578 131.556 M161.407 133.556 C 160.526 134.922,160.447 135.083,160.948 134.489 C 161.413 133.938,162.213 132.622,162.082 132.622 C 162.042 132.622,161.738 133.042,161.407 133.556 M112.449 133.612 C 112.614 133.912,112.907 134.352,113.101 134.590 L 113.452 135.022 113.151 134.477 C 112.986 134.177,112.693 133.737,112.499 133.499 L 112.148 133.067 112.449 133.612 M159.289 136.267 C 158.857 136.707,158.544 137.067,158.593 137.067 C 158.642 137.067,159.035 136.707,159.467 136.267 C 159.898 135.827,160.212 135.467,160.163 135.467 C 160.114 135.467,159.721 135.827,159.289 136.267 M116.379 138.434 C 117.287 139.333,118.213 140.160,118.437 140.271 C 118.661 140.382,118.564 140.251,118.222 139.978 C 117.880 139.706,116.954 138.880,116.164 138.142 C 114.905 136.965,114.931 137.001,116.379 138.434 M119.467 140.891 C 119.467 141.012,120.911 141.903,120.986 141.829 C 121.021 141.794,120.694 141.550,120.258 141.287 C 119.823 141.024,119.467 140.846,119.467 140.891 M147.467 143.028 C 147.020 143.244,147.006 143.268,147.378 143.178 C 147.622 143.119,147.898 143.000,147.991 142.913 C 148.222 142.698,148.095 142.726,147.467 143.028 M124.889 143.562 C 125.182 143.696,125.542 143.804,125.689 143.801 C 125.836 143.798,125.676 143.687,125.333 143.556 C 124.522 143.243,124.202 143.248,124.889 143.562 M142.578 144.280 L 141.422 144.516 142.489 144.418 C 143.076 144.365,143.676 144.251,143.822 144.166 C 144.154 143.973,144.018 143.985,142.578 144.280 M127.733 144.356 C 128.027 144.430,128.507 144.492,128.800 144.492 C 129.248 144.492,129.220 144.469,128.622 144.345 C 127.722 144.159,126.994 144.167,127.733 144.356 M129.735 144.659 C 129.957 144.702,130.277 144.700,130.447 144.655 C 130.616 144.611,130.436 144.576,130.044 144.578 C 129.653 144.580,129.514 144.617,129.735 144.659 M140.402 144.659 C 140.623 144.702,140.943 144.700,141.113 144.655 C 141.283 144.611,141.102 144.576,140.711 144.578 C 140.320 144.580,140.181 144.617,140.402 144.659 M133.556 145.021 C 134.509 145.053,136.069 145.053,137.022 145.021 C 137.976 144.989,137.196 144.963,135.289 144.963 C 133.382 144.963,132.602 144.989,133.556 145.021 " stroke="none" fill="#969696" fill-rule="evenodd"></path><path id="path4" d="M51.870 34.262 C 52.189 34.302,52.669 34.301,52.937 34.260 C 53.204 34.220,52.942 34.187,52.356 34.188 C 51.769 34.189,51.550 34.223,51.870 34.262 M55.781 34.262 C 56.100 34.302,56.580 34.301,56.848 34.260 C 57.115 34.220,56.853 34.187,56.267 34.188 C 55.680 34.189,55.461 34.223,55.781 34.262 M48.840 34.439 C 49.156 34.479,49.716 34.479,50.085 34.441 C 50.454 34.402,50.196 34.370,49.511 34.369 C 48.827 34.369,48.525 34.400,48.840 34.439 M58.267 34.440 C 58.584 34.479,59.104 34.479,59.422 34.440 C 59.740 34.400,59.480 34.368,58.844 34.368 C 58.209 34.368,57.949 34.400,58.267 34.440 M46.133 34.660 C 45.925 34.746,46.255 34.767,46.933 34.712 C 47.569 34.661,48.122 34.589,48.163 34.554 C 48.313 34.423,46.477 34.519,46.133 34.660 M60.400 34.614 C 60.620 34.657,60.980 34.657,61.200 34.614 C 61.420 34.572,61.240 34.537,60.800 34.537 C 60.360 34.537,60.180 34.572,60.400 34.614 M43.111 35.200 L 42.578 35.336 43.056 35.357 C 43.319 35.368,43.584 35.298,43.644 35.200 C 43.705 35.102,43.730 35.032,43.699 35.043 C 43.669 35.055,43.404 35.125,43.111 35.200 M64.178 35.179 C 64.324 35.261,64.724 35.379,65.067 35.439 C 65.441 35.506,65.583 35.490,65.422 35.399 C 65.276 35.317,64.876 35.199,64.533 35.139 C 64.159 35.072,64.017 35.088,64.178 35.179 M40.444 35.860 C 40.249 35.907,40.014 36.016,39.923 36.103 C 39.832 36.190,40.023 36.184,40.347 36.091 C 41.263 35.829,41.341 35.645,40.444 35.860 M38.433 36.566 C 38.012 36.715,37.699 36.869,37.738 36.908 C 37.831 37.002,38.974 36.618,39.191 36.420 C 39.402 36.228,39.371 36.234,38.433 36.566 M89.422 42.933 L 89.422 49.422 96.756 49.380 L 104.089 49.337 96.844 49.289 L 89.600 49.240 89.600 42.917 L 89.600 36.594 94.794 36.652 C 97.650 36.685,99.750 36.661,99.460 36.599 C 99.171 36.537,96.793 36.477,94.178 36.465 L 89.422 36.444 89.422 42.933 M36.800 37.244 C 36.556 37.384,36.436 37.499,36.533 37.499 C 36.631 37.499,36.911 37.384,37.156 37.244 C 37.400 37.105,37.520 36.990,37.422 36.990 C 37.324 36.990,37.044 37.105,36.800 37.244 M70.137 37.117 C 70.421 37.360,71.320 37.706,71.212 37.530 C 71.157 37.441,70.853 37.278,70.538 37.168 C 70.222 37.058,70.042 37.035,70.137 37.117 M103.281 38.800 C 104.018 39.585,104.178 39.726,104.178 39.593 C 104.178 39.564,103.798 39.184,103.333 38.748 L 102.489 37.956 103.281 38.800 M34.000 38.678 C 33.584 38.927,33.244 39.173,33.244 39.225 C 33.244 39.320,34.444 38.639,34.747 38.372 C 35.052 38.101,34.768 38.218,34.000 38.678 M76.905 41.589 C 77.402 42.133,77.982 42.809,78.194 43.091 C 78.405 43.373,78.578 43.519,78.578 43.415 C 78.578 43.312,77.998 42.636,77.289 41.914 C 76.580 41.192,76.407 41.045,76.905 41.589 M29.943 41.823 L 29.422 42.399 29.956 41.955 C 30.249 41.711,30.522 41.491,30.563 41.467 C 30.604 41.442,30.598 41.383,30.550 41.335 C 30.502 41.287,30.229 41.507,29.943 41.823 M105.571 45.811 L 105.642 49.222 104.866 49.291 L 104.089 49.360 104.933 49.391 L 105.778 49.422 105.768 46.622 C 105.762 45.082,105.699 43.502,105.629 43.111 C 105.558 42.720,105.532 43.935,105.571 45.811 M25.451 48.274 C 25.153 48.928,25.210 49.067,25.532 48.473 C 25.683 48.196,25.772 47.935,25.732 47.895 C 25.691 47.854,25.565 48.025,25.451 48.274 M52.578 47.948 C 52.798 47.990,53.158 47.990,53.378 47.948 C 53.598 47.905,53.418 47.871,52.978 47.871 C 52.538 47.871,52.358 47.905,52.578 47.948 M47.211 48.378 C 46.825 48.468,46.465 48.587,46.411 48.642 C 46.267 48.787,47.682 48.516,48.000 48.338 C 48.328 48.154,48.121 48.164,47.211 48.378 M59.022 48.622 C 59.560 48.752,60.028 48.831,60.061 48.798 C 60.156 48.704,58.799 48.356,58.400 48.372 C 58.204 48.379,58.484 48.492,59.022 48.622 M44.064 49.611 L 43.644 49.977 44.178 49.664 C 44.880 49.253,44.890 49.244,44.672 49.244 C 44.568 49.244,44.295 49.409,44.064 49.611 M62.547 49.945 C 63.264 50.326,64.024 50.784,64.236 50.963 L 64.622 51.289 64.297 50.903 C 63.986 50.535,61.714 49.239,61.396 49.249 C 61.313 49.252,61.831 49.565,62.547 49.945 M41.956 51.289 C 41.524 51.729,41.210 52.089,41.259 52.089 C 41.308 52.089,41.702 51.729,42.133 51.289 C 42.565 50.849,42.878 50.489,42.830 50.489 C 42.781 50.489,42.387 50.849,41.956 51.289 M24.289 51.474 C 24.228 51.632,24.185 51.896,24.193 52.059 C 24.201 52.222,24.279 52.120,24.365 51.831 C 24.533 51.270,24.473 50.992,24.289 51.474 M65.586 52.222 C 66.112 52.833,66.578 53.333,66.621 53.333 C 66.739 53.333,65.304 51.647,64.942 51.360 C 64.770 51.223,65.059 51.611,65.586 52.222 M134.185 53.643 C 134.800 53.678,135.760 53.677,136.318 53.642 C 136.876 53.607,136.373 53.579,135.200 53.579 C 134.027 53.579,133.570 53.608,134.185 53.643 M193.702 53.665 C 193.416 53.727,194.256 53.780,195.569 53.782 C 197.103 53.784,197.670 53.741,197.156 53.662 C 196.182 53.511,194.410 53.513,193.702 53.665 M132.133 53.811 C 132.304 53.856,132.584 53.856,132.756 53.811 C 132.927 53.767,132.787 53.730,132.444 53.730 C 132.102 53.730,131.962 53.767,132.133 53.811 M137.644 53.811 C 137.816 53.856,138.096 53.856,138.267 53.811 C 138.438 53.767,138.298 53.730,137.956 53.730 C 137.613 53.730,137.473 53.767,137.644 53.811 M130.536 53.994 C 130.806 54.035,131.206 54.034,131.425 53.992 C 131.643 53.950,131.422 53.916,130.933 53.918 C 130.444 53.919,130.266 53.953,130.536 53.994 M139.247 53.994 C 139.517 54.035,139.917 54.034,140.136 53.992 C 140.354 53.950,140.133 53.916,139.644 53.918 C 139.156 53.919,138.977 53.953,139.247 53.994 M191.778 53.992 C 191.998 54.035,192.358 54.035,192.578 53.992 C 192.798 53.950,192.618 53.915,192.178 53.915 C 191.738 53.915,191.558 53.950,191.778 53.992 M198.444 53.994 C 198.713 54.035,199.153 54.035,199.422 53.994 C 199.691 53.953,199.471 53.920,198.933 53.920 C 198.396 53.920,198.176 53.953,198.444 53.994 M128.933 54.167 C 129.104 54.212,129.384 54.212,129.556 54.167 C 129.727 54.122,129.587 54.086,129.244 54.086 C 128.902 54.086,128.762 54.122,128.933 54.167 M141.022 54.167 C 141.193 54.212,141.473 54.212,141.644 54.167 C 141.816 54.122,141.676 54.086,141.333 54.086 C 140.991 54.086,140.851 54.122,141.022 54.167 M189.465 54.215 C 189.097 54.286,188.743 54.398,188.678 54.463 C 188.613 54.528,188.793 54.537,189.080 54.483 C 189.366 54.429,189.960 54.317,190.400 54.234 C 190.971 54.127,191.047 54.084,190.667 54.084 C 190.373 54.085,189.832 54.144,189.465 54.215 M200.222 54.167 C 200.393 54.212,200.673 54.212,200.844 54.167 C 201.016 54.122,200.876 54.086,200.533 54.086 C 200.191 54.086,200.051 54.122,200.222 54.167 M127.467 54.402 C 127.279 54.525,127.384 54.543,127.822 54.463 C 128.589 54.322,128.734 54.221,128.163 54.225 C 127.927 54.226,127.613 54.306,127.467 54.402 M23.579 54.949 C 23.517 55.258,23.478 55.921,23.492 56.422 C 23.512 57.181,23.539 57.096,23.652 55.911 C 23.796 54.408,23.766 54.014,23.579 54.949 M39.743 54.978 C 39.559 55.575,39.451 56.253,39.557 56.147 C 39.699 56.005,39.995 54.756,39.887 54.756 C 39.845 54.756,39.780 54.856,39.743 54.978 M186.578 54.933 C 186.354 55.030,186.321 55.086,186.489 55.086 C 186.636 55.086,186.916 55.017,187.111 54.933 C 187.335 54.837,187.368 54.781,187.200 54.781 C 187.053 54.781,186.773 54.849,186.578 54.933 M203.932 54.835 C 203.992 54.895,204.306 55.020,204.631 55.113 C 204.955 55.207,205.146 55.214,205.055 55.131 C 204.866 54.958,203.765 54.668,203.932 54.835 M89.504 55.156 C 89.458 55.278,89.441 69.538,89.466 86.844 L 89.512 118.311 89.556 86.714 L 89.600 55.117 94.267 55.067 L 98.933 55.016 94.261 54.975 C 90.656 54.943,89.570 54.984,89.504 55.156 M100.089 55.391 C 100.089 55.511,101.012 55.847,101.100 55.759 C 101.141 55.719,100.930 55.600,100.631 55.496 C 100.333 55.392,100.089 55.345,100.089 55.391 M184.800 55.562 C 184.353 55.777,184.339 55.801,184.711 55.712 C 184.956 55.653,185.232 55.533,185.324 55.447 C 185.555 55.231,185.428 55.259,184.800 55.562 M84.015 55.911 C 84.070 56.204,84.184 57.164,84.269 58.044 L 84.424 59.644 84.343 57.803 C 84.299 56.789,84.185 55.829,84.090 55.669 C 83.962 55.453,83.943 55.515,84.015 55.911 M102.811 57.061 C 103.478 57.680,104.257 58.594,104.543 59.093 C 105.094 60.054,105.266 60.101,104.778 59.157 C 104.435 58.494,102.888 56.824,102.134 56.305 C 101.840 56.102,102.145 56.442,102.811 57.061 M148.622 56.103 C 148.622 56.223,149.546 56.558,149.634 56.470 C 149.674 56.430,149.463 56.312,149.165 56.208 C 148.866 56.104,148.622 56.056,148.622 56.103 M182.844 56.273 C 182.398 56.488,182.383 56.512,182.756 56.423 C 183.000 56.364,183.276 56.245,183.369 56.158 C 183.599 55.943,183.473 55.970,182.844 56.273 M207.644 56.148 C 207.791 56.238,208.111 56.366,208.356 56.431 C 208.664 56.514,208.719 56.500,208.533 56.386 C 208.387 56.295,208.067 56.167,207.822 56.102 C 207.513 56.019,207.459 56.033,207.644 56.148 M68.455 56.622 C 68.861 57.231,69.931 58.325,70.489 58.700 C 70.789 58.903,70.695 58.776,70.275 58.411 C 69.864 58.054,69.232 57.425,68.872 57.014 C 68.512 56.603,68.324 56.427,68.455 56.622 M120.844 56.813 C 120.180 57.173,120.220 57.324,120.889 56.978 C 121.182 56.826,121.422 56.664,121.422 56.618 C 121.422 56.503,121.403 56.510,120.844 56.813 M180.302 57.416 C 179.500 57.803,178.844 58.161,178.844 58.209 C 178.844 58.300,181.661 56.976,181.832 56.805 C 182.030 56.607,181.711 56.734,180.302 57.416 M211.185 57.781 C 211.714 58.073,212.175 58.285,212.208 58.251 C 212.284 58.175,210.584 57.243,210.376 57.248 C 210.291 57.249,210.655 57.490,211.185 57.781 M116.675 59.867 C 115.588 60.921,115.530 60.997,116.427 60.191 C 118.168 58.626,118.311 58.489,118.198 58.489 C 118.141 58.489,117.456 59.109,116.675 59.867 M76.589 60.044 C 78.086 60.074,80.486 60.074,81.922 60.044 C 83.358 60.014,82.133 59.990,79.200 59.990 C 76.267 59.990,75.092 60.014,76.589 60.044 M157.901 61.296 C 158.460 61.814,159.373 62.734,159.929 63.341 C 160.485 63.948,160.694 64.124,160.394 63.733 C 159.843 63.014,157.901 61.093,157.242 60.615 C 157.044 60.472,157.341 60.779,157.901 61.296 M216.089 61.156 C 216.570 61.644,217.004 62.044,217.053 62.044 C 217.102 62.044,216.748 61.644,216.267 61.156 C 215.785 60.667,215.351 60.267,215.302 60.267 C 215.253 60.267,215.607 60.667,216.089 61.156 M23.493 61.511 C 23.492 62.147,23.556 62.827,23.634 63.022 C 23.714 63.224,23.741 62.801,23.696 62.044 C 23.592 60.308,23.495 60.053,23.493 61.511 M105.366 61.156 C 105.424 61.596,105.501 61.989,105.536 62.030 C 105.670 62.184,105.568 61.051,105.418 60.711 C 105.312 60.474,105.295 60.621,105.366 61.156 M40.179 60.810 C 40.178 60.864,40.378 61.180,40.622 61.511 C 40.867 61.842,41.064 62.038,41.060 61.946 C 41.053 61.767,40.180 60.642,40.179 60.810 M105.687 90.222 C 105.687 105.671,105.708 111.965,105.733 104.208 C 105.759 96.452,105.759 83.812,105.733 76.119 C 105.708 68.427,105.687 74.773,105.687 90.222 M113.682 63.333 C 113.408 63.749,113.298 63.995,113.436 63.880 C 113.703 63.660,114.384 62.578,114.256 62.578 C 114.214 62.578,113.956 62.918,113.682 63.333 M113.014 64.311 C 112.973 64.384,112.715 64.844,112.441 65.333 C 112.166 65.822,112.024 66.142,112.125 66.044 C 112.382 65.795,113.299 64.178,113.183 64.178 C 113.131 64.178,113.054 64.238,113.014 64.311 M219.059 65.328 C 219.371 65.960,219.656 66.448,219.691 66.412 C 219.771 66.333,218.696 64.178,218.577 64.178 C 218.530 64.178,218.747 64.695,219.059 65.328 M45.600 65.164 C 46.284 65.494,46.924 65.762,47.022 65.759 C 47.120 65.757,46.610 65.480,45.888 65.144 C 45.166 64.808,44.526 64.540,44.466 64.549 C 44.405 64.557,44.916 64.834,45.600 65.164 M171.467 65.422 C 171.219 65.911,171.056 66.311,171.105 66.311 C 171.154 66.311,171.397 65.911,171.644 65.422 C 171.892 64.933,172.055 64.533,172.006 64.533 C 171.957 64.533,171.714 64.933,171.467 65.422 M24.110 65.689 C 24.174 65.982,24.296 66.342,24.382 66.489 C 24.482 66.660,24.497 66.564,24.423 66.222 C 24.359 65.929,24.237 65.569,24.151 65.422 C 24.051 65.252,24.037 65.348,24.110 65.689 M219.830 67.067 C 219.897 67.287,220.024 67.545,220.114 67.640 C 220.203 67.736,220.186 67.556,220.076 67.240 C 219.851 66.595,219.643 66.448,219.830 67.067 M194.889 66.972 C 195.158 67.013,195.598 67.013,195.867 66.972 C 196.136 66.931,195.916 66.898,195.378 66.898 C 194.840 66.898,194.620 66.931,194.889 66.972 M136.314 67.684 C 136.634 67.724,137.114 67.723,137.381 67.683 C 137.648 67.642,137.387 67.610,136.800 67.611 C 136.213 67.612,135.995 67.645,136.314 67.684 M132.356 68.089 C 132.131 68.185,132.099 68.242,132.267 68.242 C 132.413 68.242,132.693 68.173,132.889 68.089 C 133.113 67.993,133.146 67.936,132.978 67.936 C 132.831 67.936,132.551 68.005,132.356 68.089 M140.444 68.178 C 141.256 68.490,141.575 68.486,140.889 68.171 C 140.596 68.037,140.236 67.930,140.089 67.933 C 139.942 67.936,140.102 68.046,140.444 68.178 M56.178 68.425 C 56.324 68.515,56.844 68.634,57.333 68.690 C 58.196 68.788,58.201 68.786,57.511 68.618 C 56.149 68.288,55.893 68.251,56.178 68.425 M201.067 68.316 C 201.067 68.360,201.582 68.728,202.211 69.135 C 202.840 69.542,203.649 70.213,204.007 70.626 C 204.475 71.164,204.551 71.215,204.277 70.805 C 203.768 70.044,201.067 67.950,201.067 68.316 M188.479 68.993 C 188.069 69.295,187.733 69.580,187.733 69.626 C 187.733 69.673,188.093 69.452,188.533 69.136 C 189.253 68.620,189.442 68.444,189.279 68.444 C 189.250 68.444,188.890 68.691,188.479 68.993 M220.531 68.978 C 220.602 69.320,220.728 69.673,220.812 69.763 C 220.897 69.852,220.880 69.612,220.775 69.229 C 220.532 68.338,220.363 68.164,220.531 68.978 M129.867 69.141 C 129.378 69.425,128.618 70.044,128.178 70.517 L 127.378 71.378 128.267 70.541 C 128.756 70.081,129.596 69.462,130.133 69.166 C 130.671 68.871,131.031 68.628,130.933 68.627 C 130.836 68.626,130.356 68.858,129.867 69.141 M25.259 68.889 C 25.259 68.987,25.413 69.347,25.600 69.689 C 25.787 70.031,25.941 70.231,25.941 70.133 C 25.941 70.036,25.787 69.676,25.600 69.333 C 25.413 68.991,25.259 68.791,25.259 68.889 M142.237 68.858 C 142.278 68.889,142.591 69.096,142.933 69.317 L 143.556 69.718 143.022 69.260 C 142.729 69.008,142.416 68.801,142.326 68.801 C 142.236 68.800,142.196 68.826,142.237 68.858 M59.022 69.039 C 59.022 69.165,61.381 69.879,61.477 69.782 C 61.517 69.742,61.081 69.574,60.508 69.409 C 59.935 69.243,59.367 69.070,59.244 69.024 C 59.122 68.977,59.022 68.985,59.022 69.039 M163.406 69.244 C 163.405 69.342,163.513 69.702,163.644 70.044 C 163.776 70.387,163.887 70.547,163.890 70.400 C 163.893 70.253,163.785 69.893,163.651 69.600 C 163.517 69.307,163.406 69.147,163.406 69.244 M110.251 69.785 C 109.953 70.439,110.010 70.579,110.332 69.984 C 110.483 69.707,110.572 69.446,110.532 69.406 C 110.491 69.365,110.365 69.536,110.251 69.785 M144.348 70.444 C 144.784 70.909,145.164 71.289,145.193 71.289 C 145.326 71.289,145.185 71.129,144.400 70.393 L 143.556 69.600 144.348 70.444 M62.578 70.196 C 62.724 70.282,63.084 70.404,63.378 70.467 C 63.719 70.541,63.815 70.526,63.644 70.426 C 63.498 70.341,63.138 70.218,62.844 70.155 C 62.503 70.081,62.407 70.096,62.578 70.196 M169.358 70.971 C 169.298 71.195,169.256 71.538,169.265 71.733 C 169.273 71.929,169.353 71.777,169.443 71.395 C 169.616 70.657,169.542 70.285,169.358 70.971 M221.123 71.214 C 221.163 71.550,221.249 71.859,221.316 71.900 C 221.382 71.941,221.405 71.700,221.365 71.364 C 221.326 71.027,221.240 70.719,221.173 70.677 C 221.107 70.636,221.084 70.878,221.123 71.214 M26.133 70.824 C 26.133 71.014,26.662 72.000,26.765 72.000 C 26.814 72.000,26.721 71.740,26.560 71.422 C 26.230 70.773,26.133 70.638,26.133 70.824 M65.067 70.907 C 65.213 70.993,65.573 71.115,65.867 71.178 C 66.208 71.252,66.304 71.238,66.133 71.138 C 65.987 71.052,65.627 70.929,65.333 70.866 C 64.992 70.792,64.896 70.807,65.067 70.907 M109.511 71.822 C 109.400 72.233,109.345 72.604,109.387 72.647 C 109.430 72.689,109.551 72.384,109.657 71.968 C 109.762 71.552,109.818 71.181,109.780 71.143 C 109.743 71.106,109.622 71.411,109.511 71.822 M67.556 71.644 C 68.163 71.839,68.631 71.839,68.178 71.644 C 67.982 71.560,67.662 71.494,67.467 71.497 C 67.181 71.501,67.198 71.530,67.556 71.644 M204.889 72.000 C 205.041 72.293,205.205 72.533,205.254 72.533 C 205.302 72.533,205.218 72.293,205.067 72.000 C 204.915 71.707,204.751 71.467,204.702 71.467 C 204.653 71.467,204.737 71.707,204.889 72.000 M70.222 72.356 C 70.830 72.550,71.297 72.550,70.844 72.356 C 70.649 72.272,70.329 72.205,70.133 72.208 C 69.848 72.212,69.865 72.241,70.222 72.356 M27.213 72.876 C 27.329 73.114,28.074 73.959,28.868 74.755 L 30.311 76.203 29.059 74.857 C 28.370 74.117,27.626 73.271,27.405 72.978 C 27.097 72.570,27.052 72.546,27.213 72.876 M164.475 72.800 C 164.472 72.996,164.538 73.316,164.622 73.511 C 164.817 73.964,164.817 73.497,164.622 72.889 C 164.508 72.532,164.479 72.514,164.475 72.800 M73.244 73.511 C 73.489 73.651,73.769 73.765,73.867 73.765 C 73.964 73.765,73.844 73.651,73.600 73.511 C 73.356 73.371,73.076 73.257,72.978 73.257 C 72.880 73.257,73.000 73.371,73.244 73.511 M108.911 73.874 C 108.850 74.032,108.807 74.296,108.815 74.459 C 108.824 74.622,108.901 74.520,108.987 74.231 C 109.155 73.670,109.095 73.392,108.911 73.874 M184.987 73.940 C 184.932 74.030,184.850 74.610,184.806 75.229 L 184.725 76.356 184.894 75.289 C 184.988 74.702,185.102 74.122,185.149 74.000 C 185.247 73.742,185.135 73.701,184.987 73.940 M221.824 75.421 C 221.917 76.929,222.014 77.120,222.028 75.822 C 222.034 75.236,221.975 74.655,221.897 74.532 C 221.819 74.409,221.786 74.809,221.824 75.421 M168.647 75.060 C 168.587 75.283,168.549 75.947,168.563 76.533 C 168.586 77.574,168.590 77.566,168.711 76.178 C 168.842 74.676,168.826 74.392,168.647 75.060 M108.646 75.141 C 108.633 75.353,108.576 75.673,108.520 75.852 C 108.423 76.160,108.428 76.161,108.620 75.862 C 108.732 75.688,108.789 75.368,108.747 75.150 C 108.671 74.756,108.671 74.756,108.646 75.141 M125.280 74.978 C 125.142 75.223,124.947 76.178,125.058 76.068 C 125.190 75.936,125.513 74.844,125.420 74.844 C 125.384 74.844,125.321 74.904,125.280 74.978 M165.110 76.622 C 165.161 77.356,165.259 78.063,165.328 78.194 C 165.488 78.497,165.348 76.532,165.159 75.822 C 165.072 75.495,165.053 75.805,165.110 76.622 M78.222 75.770 C 78.271 75.822,78.791 76.245,79.378 76.711 C 79.964 77.176,80.924 78.007,81.510 78.556 C 82.481 79.466,82.505 79.479,81.777 78.699 C 81.008 77.875,78.952 76.123,78.400 75.822 C 78.253 75.742,78.173 75.719,78.222 75.770 M147.941 76.276 C 148.045 76.574,148.163 76.785,148.203 76.745 C 148.291 76.657,147.956 75.733,147.836 75.733 C 147.790 75.733,147.837 75.977,147.941 76.276 M31.289 76.860 C 31.289 76.905,31.556 77.100,31.882 77.293 C 32.208 77.485,32.708 77.782,32.993 77.953 L 33.511 78.264 33.067 77.897 C 32.559 77.476,31.289 76.736,31.289 76.860 M124.464 77.449 C 124.131 78.705,123.930 79.723,124.001 79.794 C 124.040 79.833,124.124 79.635,124.187 79.354 C 124.251 79.074,124.412 78.408,124.544 77.874 C 124.677 77.341,124.754 76.873,124.716 76.834 C 124.677 76.796,124.564 77.072,124.464 77.449 M168.441 97.956 C 168.441 109.151,168.463 113.731,168.489 108.133 C 168.515 102.536,168.515 93.376,168.489 87.778 C 168.463 82.180,168.441 86.760,168.441 97.956 M107.960 79.289 C 107.960 79.729,107.994 79.909,108.037 79.689 C 108.079 79.469,108.079 79.109,108.037 78.889 C 107.994 78.669,107.960 78.849,107.960 79.289 M148.913 79.289 C 148.970 79.729,149.087 80.209,149.173 80.356 C 149.344 80.651,149.192 79.669,148.952 78.933 C 148.857 78.642,148.844 78.764,148.913 79.289 M36.444 79.614 C 36.591 79.705,36.911 79.833,37.156 79.898 C 37.464 79.981,37.519 79.967,37.333 79.852 C 37.187 79.762,36.867 79.634,36.622 79.569 C 36.313 79.486,36.259 79.500,36.444 79.614 M38.667 80.425 C 38.960 80.560,39.480 80.716,39.822 80.773 C 40.360 80.863,40.339 80.842,39.664 80.620 C 38.490 80.234,38.069 80.152,38.667 80.425 M83.816 81.378 C 84.090 81.793,84.348 82.133,84.389 82.133 C 84.517 82.133,83.837 81.051,83.570 80.831 C 83.431 80.716,83.542 80.962,83.816 81.378 M123.600 81.689 C 123.602 82.080,123.639 82.219,123.681 81.998 C 123.724 81.777,123.722 81.457,123.678 81.287 C 123.633 81.117,123.598 81.298,123.600 81.689 M149.464 81.867 C 149.539 82.160,149.600 84.520,149.600 87.111 C 149.600 90.488,149.642 91.470,149.747 90.578 C 149.954 88.834,149.793 82.102,149.534 81.674 C 149.361 81.387,149.350 81.418,149.464 81.867 M44.622 82.133 C 44.867 82.212,45.227 82.276,45.422 82.276 C 45.704 82.276,45.685 82.246,45.333 82.133 C 45.089 82.055,44.729 81.991,44.533 81.991 C 44.252 81.991,44.270 82.021,44.622 82.133 M123.435 83.556 C 123.435 84.191,123.467 84.451,123.506 84.133 C 123.546 83.816,123.546 83.296,123.506 82.978 C 123.467 82.660,123.435 82.920,123.435 83.556 M49.422 83.260 C 49.422 83.305,49.680 83.433,49.996 83.543 C 50.311 83.653,50.491 83.670,50.396 83.580 C 50.194 83.391,49.422 83.137,49.422 83.260 M52.533 84.183 C 52.924 84.312,53.404 84.416,53.600 84.415 C 53.796 84.414,53.556 84.301,53.067 84.165 C 51.954 83.856,51.579 83.868,52.533 84.183 M54.775 84.693 C 54.915 84.843,57.308 85.507,57.394 85.420 C 57.451 85.364,56.815 85.164,55.022 84.675 C 54.827 84.622,54.715 84.630,54.775 84.693 M86.333 87.200 C 86.396 87.493,86.518 87.853,86.604 88.000 C 86.704 88.171,86.719 88.075,86.645 87.733 C 86.582 87.440,86.459 87.080,86.374 86.933 C 86.274 86.763,86.259 86.859,86.333 87.200 M63.304 87.712 C 63.485 87.879,65.956 89.062,65.956 88.982 C 65.956 88.883,63.546 87.644,63.353 87.644 C 63.285 87.644,63.263 87.675,63.304 87.712 M67.289 89.891 C 67.387 89.977,67.746 90.287,68.088 90.579 L 68.710 91.111 68.266 90.606 C 68.022 90.328,67.662 90.018,67.467 89.917 C 67.271 89.817,67.191 89.805,67.289 89.891 M123.391 91.126 C 123.398 91.704,123.470 92.538,123.550 92.978 C 123.647 93.512,123.664 93.188,123.601 92.000 C 123.496 90.021,123.371 89.500,123.391 91.126 M87.184 93.867 C 87.184 95.578,87.211 96.278,87.243 95.422 C 87.276 94.567,87.276 93.167,87.243 92.311 C 87.211 91.456,87.184 92.156,87.184 93.867 M107.871 93.531 C 107.920 94.058,108.022 94.649,108.098 94.844 C 108.173 95.040,108.192 94.720,108.138 94.133 C 108.085 93.547,107.983 92.956,107.911 92.820 C 107.840 92.685,107.821 93.005,107.871 93.531 M30.477 92.932 L 38.377 92.981 38.450 93.380 C 38.513 93.723,38.521 93.716,38.506 93.333 L 38.489 92.889 30.533 92.886 L 22.578 92.883 30.477 92.932 M22.240 94.059 C 22.250 94.687,22.319 95.400,22.393 95.644 C 22.467 95.889,22.489 95.409,22.440 94.578 C 22.335 92.771,22.215 92.460,22.240 94.059 M149.077 93.712 C 149.024 93.944,148.897 94.533,148.795 95.022 C 148.693 95.511,148.562 96.071,148.505 96.267 C 148.447 96.462,148.463 96.563,148.540 96.490 C 148.702 96.336,149.348 93.466,149.243 93.362 C 149.205 93.323,149.130 93.481,149.077 93.712 M123.962 95.378 C 124.015 95.573,124.154 96.158,124.271 96.676 C 124.389 97.195,124.517 97.586,124.557 97.546 C 124.655 97.449,124.145 95.283,123.989 95.137 C 123.922 95.074,123.910 95.182,123.962 95.378 M38.958 95.822 C 38.958 95.969,39.027 96.249,39.111 96.444 C 39.207 96.669,39.264 96.701,39.264 96.533 C 39.264 96.387,39.195 96.107,39.111 95.911 C 39.015 95.687,38.958 95.654,38.958 95.822 M108.559 97.422 C 108.700 98.189,108.801 98.334,108.797 97.763 C 108.796 97.527,108.716 97.213,108.620 97.067 C 108.497 96.879,108.479 96.984,108.559 97.422 M147.955 97.822 C 147.764 98.345,147.769 98.367,148.005 98.055 C 148.231 97.756,148.365 97.244,148.217 97.244 C 148.189 97.244,148.072 97.504,147.955 97.822 M71.015 97.911 C 70.958 98.180,70.881 98.552,70.844 98.737 C 70.806 98.922,70.841 99.002,70.920 98.914 C 71.075 98.744,71.316 97.422,71.192 97.422 C 71.151 97.422,71.072 97.642,71.015 97.911 M22.798 97.956 C 22.798 98.200,22.859 98.640,22.933 98.933 C 23.054 99.409,23.069 99.419,23.069 99.022 C 23.069 98.778,23.008 98.338,22.933 98.044 C 22.812 97.569,22.798 97.559,22.798 97.956 M124.990 98.756 C 124.990 98.853,125.105 99.133,125.244 99.378 C 125.384 99.622,125.499 99.742,125.499 99.644 C 125.499 99.547,125.384 99.267,125.244 99.022 C 125.105 98.778,124.990 98.658,124.990 98.756 M109.181 99.733 C 109.181 99.880,109.249 100.160,109.333 100.356 C 109.430 100.580,109.486 100.613,109.486 100.444 C 109.486 100.298,109.417 100.018,109.333 99.822 C 109.237 99.598,109.181 99.565,109.181 99.733 M40.711 99.867 C 40.711 99.967,41.211 100.563,41.822 101.191 C 42.433 101.819,42.606 101.969,42.207 101.522 C 41.807 101.076,41.307 100.480,41.096 100.198 C 40.884 99.916,40.711 99.767,40.711 99.867 M70.072 100.732 C 69.855 101.179,69.263 101.997,68.756 102.550 L 67.834 103.556 68.745 102.690 C 69.568 101.907,70.722 100.174,70.540 99.992 C 70.500 99.952,70.289 100.285,70.072 100.732 M86.517 100.222 C 86.297 101.033,86.226 101.586,86.373 101.333 C 86.548 101.033,86.786 99.911,86.674 99.911 C 86.634 99.911,86.564 100.051,86.517 100.222 M125.894 100.632 C 126.117 101.029,126.408 101.444,126.540 101.554 C 126.673 101.664,126.523 101.339,126.208 100.832 C 125.529 99.740,125.316 99.604,125.894 100.632 M109.613 101.156 C 109.678 101.400,109.806 101.720,109.897 101.867 C 110.011 102.052,110.025 101.998,109.943 101.689 C 109.877 101.444,109.750 101.124,109.659 100.978 C 109.544 100.792,109.530 100.847,109.613 101.156 M127.733 102.933 C 128.115 103.324,128.468 103.644,128.517 103.644 C 128.565 103.644,128.293 103.324,127.911 102.933 C 127.529 102.542,127.177 102.222,127.128 102.222 C 127.079 102.222,127.351 102.542,127.733 102.933 M142.942 104.014 C 142.507 104.300,142.228 104.533,142.323 104.533 C 142.517 104.533,143.822 103.677,143.822 103.549 C 143.822 103.435,143.828 103.432,142.942 104.014 M45.689 104.102 C 45.689 104.225,47.689 105.082,47.848 105.026 C 47.924 105.000,47.470 104.763,46.838 104.500 C 46.206 104.237,45.689 104.058,45.689 104.102 M85.184 104.630 C 84.887 105.284,84.943 105.423,85.265 104.829 C 85.416 104.551,85.506 104.291,85.465 104.250 C 85.424 104.210,85.298 104.380,85.184 104.630 M130.756 104.899 C 131.147 105.084,131.627 105.235,131.822 105.234 C 132.018 105.233,131.738 105.078,131.200 104.889 C 129.981 104.460,129.835 104.463,130.756 104.899 M140.267 105.169 L 139.467 105.415 140.178 105.314 C 140.569 105.258,141.009 105.142,141.156 105.056 C 141.525 104.839,141.211 104.880,140.267 105.169 M48.444 105.217 C 48.994 105.452,49.916 105.634,49.600 105.445 C 49.453 105.357,49.053 105.236,48.711 105.175 C 48.291 105.101,48.205 105.114,48.444 105.217 M63.911 105.244 C 63.687 105.341,63.654 105.397,63.822 105.397 C 63.969 105.397,64.249 105.328,64.444 105.244 C 64.669 105.148,64.701 105.092,64.533 105.092 C 64.387 105.092,64.107 105.160,63.911 105.244 M84.651 105.874 C 84.353 106.528,84.410 106.667,84.732 106.073 C 84.883 105.796,84.972 105.535,84.932 105.495 C 84.891 105.454,84.765 105.625,84.651 105.874 M135.600 105.730 C 136.016 105.768,136.696 105.768,137.111 105.730 C 137.527 105.693,137.187 105.662,136.356 105.662 C 135.524 105.662,135.184 105.693,135.600 105.730 M25.425 105.836 C 25.420 106.080,26.795 108.319,27.300 108.889 L 27.773 109.422 27.306 108.764 C 27.049 108.401,26.521 107.561,26.133 106.897 C 25.746 106.232,25.427 105.755,25.425 105.836 M51.644 105.964 C 52.347 106.111,54.351 106.194,54.207 106.069 C 54.167 106.034,53.413 105.962,52.533 105.910 C 51.445 105.845,51.161 105.862,51.644 105.964 M59.600 106.083 C 59.869 106.124,60.309 106.124,60.578 106.083 C 60.847 106.042,60.627 106.009,60.089 106.009 C 59.551 106.009,59.331 106.042,59.600 106.083 M54.713 106.259 C 54.934 106.302,55.254 106.300,55.424 106.255 C 55.594 106.211,55.413 106.176,55.022 106.178 C 54.631 106.180,54.492 106.217,54.713 106.259 M57.733 106.259 C 57.953 106.301,58.313 106.301,58.533 106.259 C 58.753 106.216,58.573 106.182,58.133 106.182 C 57.693 106.182,57.513 106.216,57.733 106.259 M112.179 106.593 C 112.179 106.682,112.386 106.996,112.638 107.289 L 113.096 107.822 112.694 107.200 C 112.179 106.402,112.178 106.400,112.179 106.593 M81.847 110.347 C 81.470 110.807,81.254 111.126,81.368 111.056 C 81.610 110.906,82.735 109.511,82.614 109.511 C 82.569 109.511,82.223 109.887,81.847 110.347 M114.489 109.922 C 114.489 109.953,114.749 110.213,115.067 110.500 L 115.644 111.022 115.122 110.444 C 114.636 109.906,114.489 109.785,114.489 109.922 M149.761 113.511 C 149.761 115.076,149.788 115.692,149.821 114.880 C 149.854 114.069,149.854 112.789,149.821 112.036 C 149.788 111.283,149.761 111.947,149.761 113.511 M29.689 111.708 C 30.129 112.178,30.729 112.729,31.022 112.932 C 31.640 113.360,31.591 113.309,30.044 111.904 C 29.017 110.971,28.978 110.949,29.689 111.708 M148.567 112.046 C 147.771 113.078,147.763 113.100,148.443 112.356 C 149.096 111.642,149.611 110.931,149.473 110.935 C 149.445 110.936,149.037 111.436,148.567 112.046 M206.333 111.733 C 206.388 112.222,206.507 112.742,206.597 112.889 C 206.771 113.173,206.734 112.918,206.404 111.556 C 206.236 110.865,206.234 110.871,206.333 111.733 M116.267 111.885 C 116.707 112.355,117.547 113.148,118.133 113.647 C 119.358 114.686,118.932 114.242,116.889 112.348 C 116.107 111.622,115.827 111.414,116.267 111.885 M80.367 112.048 C 79.861 112.672,79.841 112.724,80.250 112.356 C 80.676 111.972,81.181 111.282,81.028 111.292 C 81.001 111.294,80.703 111.634,80.367 112.048 M146.844 114.044 C 146.413 114.484,146.099 114.844,146.148 114.844 C 146.197 114.844,146.590 114.484,147.022 114.044 C 147.454 113.604,147.767 113.244,147.718 113.244 C 147.670 113.244,147.276 113.604,146.844 114.044 M206.970 113.911 C 207.292 114.669,208.451 116.139,209.101 116.614 C 209.461 116.876,209.299 116.650,208.686 116.033 C 208.135 115.478,207.515 114.663,207.308 114.223 C 206.902 113.358,206.630 113.107,206.970 113.911 M32.178 113.849 C 32.178 113.939,34.181 115.384,34.667 115.643 C 35.158 115.905,34.610 115.462,33.378 114.600 C 32.718 114.138,32.178 113.800,32.178 113.849 M121.333 116.012 C 121.766 116.356,123.391 117.202,123.469 117.123 C 123.500 117.092,122.952 116.766,122.251 116.398 C 121.551 116.031,121.138 115.857,121.333 116.012 M144.214 116.165 C 143.388 116.749,143.272 116.916,143.969 116.517 C 144.295 116.330,144.644 116.078,144.747 115.956 C 145.009 115.641,144.886 115.690,144.214 116.165 M35.378 115.999 C 35.378 116.119,36.822 116.837,36.902 116.757 C 36.939 116.720,36.612 116.515,36.174 116.303 C 35.736 116.090,35.378 115.953,35.378 115.999 M73.600 116.622 C 73.062 116.906,72.702 117.139,72.800 117.139 C 72.898 117.139,73.418 116.906,73.956 116.622 C 74.493 116.338,74.853 116.106,74.756 116.106 C 74.658 116.106,74.138 116.338,73.600 116.622 M149.556 117.067 C 149.558 117.458,149.594 117.597,149.637 117.376 C 149.679 117.155,149.678 116.835,149.633 116.665 C 149.589 116.495,149.554 116.676,149.556 117.067 M70.844 117.784 C 70.400 117.998,70.385 118.023,70.756 117.932 C 71.259 117.809,71.826 117.521,71.556 117.525 C 71.458 117.526,71.138 117.643,70.844 117.784 M124.622 117.614 C 124.622 117.734,125.546 118.069,125.634 117.981 C 125.674 117.941,125.463 117.823,125.165 117.719 C 124.866 117.615,124.622 117.567,124.622 117.614 M210.937 117.671 C 211.033 117.765,211.351 117.898,211.644 117.968 C 212.332 118.131,212.178 117.980,211.382 117.710 C 211.042 117.595,210.842 117.578,210.937 117.671 M40.910 118.302 C 40.969 118.362,41.284 118.487,41.608 118.580 C 41.933 118.673,42.124 118.681,42.032 118.598 C 41.844 118.425,40.743 118.135,40.910 118.302 M68.889 118.349 C 68.693 118.396,68.459 118.505,68.368 118.592 C 68.276 118.679,68.467 118.673,68.792 118.580 C 69.708 118.317,69.785 118.133,68.889 118.349 M43.733 119.095 C 43.880 119.175,44.320 119.288,44.711 119.346 C 45.119 119.406,45.309 119.389,45.156 119.305 C 45.009 119.225,44.569 119.112,44.178 119.054 C 43.770 118.994,43.580 119.011,43.733 119.095 M65.867 119.111 C 65.383 119.234,65.374 119.248,65.778 119.255 C 66.022 119.260,66.382 119.195,66.578 119.111 C 67.016 118.923,66.607 118.923,65.867 119.111 M129.689 119.116 C 130.031 119.258,131.692 119.356,131.541 119.225 C 131.500 119.189,130.987 119.117,130.400 119.064 C 129.756 119.005,129.474 119.026,129.689 119.116 M135.822 119.111 L 134.844 119.231 135.733 119.242 C 136.222 119.248,136.822 119.189,137.067 119.111 C 137.612 118.936,137.249 118.936,135.822 119.111 M132.578 119.419 C 132.993 119.456,133.673 119.456,134.089 119.419 C 134.504 119.382,134.164 119.351,133.333 119.351 C 132.502 119.351,132.162 119.382,132.578 119.419 M48.000 119.828 C 48.442 119.964,50.615 120.059,50.474 119.935 C 50.433 119.900,49.760 119.830,48.978 119.781 C 48.196 119.731,47.756 119.752,48.000 119.828 M60.403 119.951 C 60.723 119.991,61.203 119.990,61.470 119.949 C 61.737 119.909,61.476 119.876,60.889 119.877 C 60.302 119.878,60.084 119.911,60.403 119.951 M53.033 120.133 C 54.285 120.164,56.285 120.163,57.477 120.133 C 58.669 120.102,57.644 120.077,55.200 120.077 C 52.756 120.077,51.780 120.102,53.033 120.133 M165.264 120.912 C 165.114 121.642,164.955 123.815,165.060 123.711 C 165.115 123.656,165.227 122.938,165.310 122.116 C 165.457 120.650,165.435 120.080,165.264 120.912 M147.955 123.067 C 147.764 123.589,147.769 123.611,148.005 123.299 C 148.231 123.001,148.365 122.489,148.217 122.489 C 148.189 122.489,148.072 122.749,147.955 123.067 M109.096 124.563 C 109.031 124.628,108.979 124.768,108.981 124.874 C 108.982 124.986,109.043 124.972,109.126 124.841 C 109.240 124.663,111.027 124.625,117.640 124.663 C 122.244 124.690,125.974 124.651,125.928 124.578 C 125.826 124.413,109.261 124.398,109.096 124.563 M164.559 125.453 C 164.506 125.632,164.422 126.098,164.371 126.489 C 164.300 127.035,164.336 126.975,164.529 126.227 C 164.758 125.338,164.783 124.694,164.559 125.453 M109.212 125.600 C 109.267 125.796,109.402 126.304,109.512 126.729 C 109.622 127.154,109.744 127.471,109.783 127.432 C 109.876 127.339,109.391 125.507,109.234 125.359 C 109.166 125.296,109.157 125.404,109.212 125.600 M144.990 127.244 C 144.605 127.736,144.575 127.818,144.873 127.558 C 145.229 127.246,145.699 126.578,145.562 126.578 C 145.534 126.578,145.276 126.878,144.990 127.244 M128.000 127.354 C 128.342 127.725,128.782 128.113,128.978 128.216 C 129.173 128.319,129.293 128.367,129.244 128.321 C 128.107 127.264,127.435 126.741,128.000 127.354 M163.932 127.840 C 163.823 128.153,163.739 128.497,163.746 128.604 C 163.753 128.712,163.873 128.487,164.013 128.104 C 164.153 127.722,164.237 127.378,164.199 127.340 C 164.161 127.302,164.041 127.527,163.932 127.840 M143.549 128.494 C 142.950 129.030,143.103 128.982,143.891 128.387 C 144.173 128.174,144.333 128.002,144.246 128.005 C 144.160 128.007,143.846 128.227,143.549 128.494 M110.146 128.533 C 110.212 128.778,110.339 129.098,110.430 129.244 C 110.545 129.430,110.558 129.376,110.476 129.067 C 110.410 128.822,110.283 128.502,110.192 128.356 C 110.078 128.170,110.064 128.224,110.146 128.533 M132.089 129.880 C 132.089 130.000,133.012 130.336,133.100 130.248 C 133.141 130.207,132.930 130.089,132.631 129.985 C 132.333 129.881,132.089 129.834,132.089 129.880 M134.400 130.666 C 134.839 130.807,136.484 130.904,136.341 130.780 C 136.300 130.745,135.747 130.673,135.111 130.619 C 134.418 130.561,134.133 130.580,134.400 130.666 M137.647 130.794 C 137.917 130.835,138.317 130.834,138.536 130.792 C 138.754 130.750,138.533 130.716,138.044 130.718 C 137.556 130.719,137.377 130.753,137.647 130.794 M111.822 132.267 C 112.118 132.853,112.401 133.333,112.450 133.333 C 112.498 133.333,112.296 132.853,112.000 132.267 C 111.704 131.680,111.422 131.200,111.373 131.200 C 111.324 131.200,111.526 131.680,111.822 132.267 M159.475 135.881 L 158.329 137.156 159.355 136.178 C 160.197 135.376,160.900 134.530,160.673 134.592 C 160.645 134.599,160.106 135.179,159.475 135.881 M114.632 136.489 C 115.023 136.953,115.566 137.533,115.839 137.778 C 116.112 138.022,115.823 137.642,115.198 136.933 C 113.925 135.491,113.536 135.185,114.632 136.489 M116.622 138.573 C 116.622 138.687,119.276 140.800,119.419 140.800 C 119.555 140.800,119.618 140.854,118.000 139.574 C 117.242 138.975,116.622 138.525,116.622 138.573 M150.400 141.778 C 150.156 141.918,150.036 142.032,150.133 142.032 C 150.231 142.032,150.511 141.918,150.756 141.778 C 151.000 141.638,151.120 141.524,151.022 141.524 C 150.924 141.524,150.644 141.638,150.400 141.778 M145.981 143.315 C 145.652 143.410,145.418 143.521,145.460 143.564 C 145.502 143.606,145.891 143.529,146.324 143.393 C 147.208 143.116,146.909 143.048,145.981 143.315 M126.222 143.803 C 126.760 143.985,127.640 144.181,128.178 144.238 C 129.017 144.328,128.954 144.297,127.733 144.023 C 125.302 143.476,125.218 143.463,126.222 143.803 M133.378 144.844 C 134.429 144.875,136.149 144.875,137.200 144.844 C 138.251 144.812,137.391 144.787,135.289 144.787 C 133.187 144.787,132.327 144.812,133.378 144.844 " stroke="none" fill="#747474" fill-rule="evenodd"></path></g></svg>